<svg xmlns="http://www.w3.org/2000/svg" width="92" height="73" viewBox="0 0 92 73">
  <defs>
    <style>
      .cls-1 {
        fill: #f6e6fa;
      }

      .cls-1, .cls-2 {
        fill-rule: evenodd;
      }

      .cls-2 {
        fill: #ab73e1;
      }
    </style>
  </defs>
  <path class="cls-1" d="M26.5,1C46.106,1,72,16.894,72,36.5a35.5,35.5,0,0,1-71,0C1,16.894,6.894,1,26.5,1Z"/>
  <path class="cls-2" d="M55.444,27.622V26.361H56.7v1.261h-1.26Zm3.361,0V26.361h6.3v1.261h-6.3ZM42,73V58.252a8.974,8.974,0,0,1,.832-3.787l3.814-8.275a2.315,2.315,0,0,1,1.115-1.108,0.21,0.21,0,0,0,.121-0.191V28.672A5.688,5.688,0,0,1,53.554,23h16.8a5.716,5.716,0,0,1,4.8,2.656l-1.091.631a4.444,4.444,0,0,0-3.71-2.027h-16.8a4.424,4.424,0,0,0-4.411,4.412V58.924a4.4,4.4,0,0,0,.034.529,0.21,0.21,0,0,0,.167.18,0.2,0.2,0,0,0,.042,0,0.211,0.211,0,0,0,.182-0.105l2.857-4.951a3.142,3.142,0,0,1,5.616,2.8,0.21,0.21,0,0,0,.091.265,0.21,0.21,0,0,0,.274-0.061,2.306,2.306,0,0,1,1.873-.968h3.36a2.311,2.311,0,0,1,0,4.622H60.276a2.313,2.313,0,0,1-2.311-2.311,2.274,2.274,0,0,1,.131-0.732,0.21,0.21,0,0,0-.38-0.175l-2.889,5a0.21,0.21,0,0,0,.182.315H70.358a4.424,4.424,0,0,0,4.411-4.412V54.932h1.26v3.992A5.688,5.688,0,0,1,70.358,64.6H55.04a0.21,0.21,0,0,0-.18.319l1.034,1.719a5.682,5.682,0,0,1,.81,2.923v3.434h-1.26V69.557a4.427,4.427,0,0,0-.631-2.274l-1.8-2.992a0.631,0.631,0,0,1-.006-0.641L56.789,57.1a1.891,1.891,0,0,0-3.274-1.892L49.734,61.76a0.632,0.632,0,0,1-.547.318,0.631,0.631,0,0,1-.576-0.374L48.6,61.688a5.661,5.661,0,0,1-.72-2.764V47.476a0.21,0.21,0,0,0-.165-0.205,0.248,0.248,0,0,0-.045,0,0.21,0.21,0,0,0-.191.122l-3.505,7.607a7.712,7.712,0,0,0-.715,3.258V73H42ZM60.276,57.874a1.05,1.05,0,0,0,0,2.1h3.361a1.05,1.05,0,0,0,0-2.1H60.276Zm18.494-4.2a13.738,13.738,0,0,1-2.309-.2,13.173,13.173,0,0,1-6.516-3.167,0.207,0.207,0,0,0-.14-0.054,0.211,0.211,0,0,0-.039,0l-5.487,1.025a0.7,0.7,0,0,1-.114.01,0.647,0.647,0,0,1-.526-0.27,0.631,0.631,0,0,1-.024-0.678l2.84-4.815a0.21,0.21,0,0,0,.014-0.185,13.236,13.236,0,0,1,4.707-15.769,13.243,13.243,0,1,1,7.593,24.1h0Zm-8.7-4.739a0.638,0.638,0,0,1,.435.17,11.935,11.935,0,0,0,6.183,3.126,12.1,12.1,0,0,0,2.093.184,11.977,11.977,0,0,0,2.062-23.771,12.126,12.126,0,0,0-2.092-.184A11.967,11.967,0,0,0,67.8,45.236a0.658,0.658,0,0,1-.041.575L65.64,49.389a0.21,0.21,0,0,0,.181.317,0.2,0.2,0,0,0,.039,0l4.092-.765a0.844,0.844,0,0,1,.088,0h0.026Zm4.493-.3a2.323,2.323,0,0,1-2.311-2.311V36.235a0.631,0.631,0,0,1,.63-0.631H75.4a0.21,0.21,0,0,0,.21-0.21v-0.84a3.151,3.151,0,1,1,6.3,0v0.84a0.21,0.21,0,0,0,.21.21h2.521a0.631,0.631,0,0,1,.63.631V46.319a2.323,2.323,0,0,1-2.311,2.311h-8.4Zm-0.84-3.361a0.21,0.21,0,0,0-.21.21v0.84a1.051,1.051,0,0,0,1.05,1.05h8.4a1.051,1.051,0,0,0,1.05-1.05v-0.84a0.21,0.21,0,0,0-.21-0.21H73.719Zm0-8.4a0.21,0.21,0,0,0-.21.211V43.8a0.21,0.21,0,0,0,.21.21H83.8a0.21,0.21,0,0,0,.21-0.21V37.075a0.21,0.21,0,0,0-.21-0.211h-1.68a0.21,0.21,0,0,0-.21.211v1.47h-1.26v-1.47a0.21,0.21,0,0,0-.21-0.211H77.08a0.21,0.21,0,0,0-.21.211v1.47H75.61v-1.47a0.21,0.21,0,0,0-.21-0.211h-1.68Zm5.041-4.2a1.893,1.893,0,0,0-1.89,1.891v0.84a0.21,0.21,0,0,0,.21.21h3.361a0.21,0.21,0,0,0,.21-0.21v-0.84A1.893,1.893,0,0,0,78.761,32.663ZM55.218,42.773a4,4,0,1,1,2.214-7.343A0.209,0.209,0,0,0,57.7,35.4l1.145-1.145,0.891,0.891-1.145,1.146a0.21,0.21,0,0,0-.027.264,4,4,0,0,1-3.343,6.215h0Zm0.017-6.748a2.731,2.731,0,1,0,2.731,2.731,2.705,2.705,0,0,0-.273-1.172,0.209,0.209,0,0,0-.154-0.115,0.2,0.2,0,0,0-.035,0,0.212,0.212,0,0,0-.148.062l-2.366,2.365L54.1,39l2.365-2.366a0.21,0.21,0,0,0-.056-0.337,2.7,2.7,0,0,0-1.171-.274h0Zm6.092,1.681V36.445h2.941v1.261H61.326Zm0,3.362V39.807h2.941v1.261H61.326Z"/>
</svg>
