<svg xmlns="http://www.w3.org/2000/svg" width="84" height="68" viewBox="0 0 84 68">
  <defs>
    <style>
      .cls-1 {
        fill: #dbf7f8;
      }

      .cls-1, .cls-2 {
        fill-rule: evenodd;
      }

      .cls-2 {
        fill: #60afb2;
      }
    </style>
  </defs>
  <path id="Shape_1_copy_2" data-name="Shape 1 copy 2" class="cls-1" d="M23.833,68c11.782-1.363,22.67-7.237,32.814-13.1,18.066-10.519,11.055-27.529,3-42.319C50.2-4.427,38.736-2.342,24.577,7.891,13.023,16.008-2.578,26.506.37,42.726,3.106,54.425,9.833,67.665,23.833,68Z"/>
  <path class="cls-2" d="M80.577,62.726a0.74,0.74,0,0,1-.523-1.263l1.1-1.1a0.185,0.185,0,0,0-.131-0.316H41.349a0.185,0.185,0,0,0-.185.185v1.758a0.74,0.74,0,1,1-1.48,0V60.228a0.185,0.185,0,0,0-.185-0.185H37.74a0.74,0.74,0,1,1,0-1.48H39.5a0.185,0.185,0,0,0,.185-0.185v-34.4a0.185,0.185,0,0,0-.316-0.131l-1.1,1.1A0.74,0.74,0,0,1,37.217,23.9L39.9,21.217a0.74,0.74,0,0,1,1.047,0L43.63,23.9a0.74,0.74,0,0,1-1.047,1.047l-1.1-1.1a0.185,0.185,0,0,0-.316.131V40.8a0.185,0.185,0,0,0,.185.185h2.22a0.74,0.74,0,1,1,0,1.48h-2.22a0.185,0.185,0,0,0-.185.185V58.228a0.186,0.186,0,0,0,.185.185,0.162,0.162,0,0,0,.035,0,24.041,24.041,0,0,0,11.248-5.7,27.869,27.869,0,0,0,6.941-9.987,0.185,0.185,0,0,0-.17-0.257H58.372a0.74,0.74,0,1,1,0-1.48h1.749a0.186,0.186,0,0,0,.174-0.123c0.218-.611.422-1.233,0.606-1.847a27.492,27.492,0,0,1,1.887-4.781,0.74,0.74,0,0,1,1.313.684,26,26,0,0,0-1.782,4.521c-0.126.421-.265,0.859-0.415,1.3a0.185,0.185,0,0,0,.174.244,0.74,0.74,0,0,1-.006,1.48H61.4a0.185,0.185,0,0,0-.172.117A33.486,33.486,0,0,1,59.2,46.822l0,0a0.185,0.185,0,0,0,.228.288A15.668,15.668,0,0,1,67.9,44.685c2.786,0,4.672,1.443,6.5,2.838,0.444,0.34.948,0.725,1.448,1.069a0.185,0.185,0,0,0,.29-0.152V30.425a0.185,0.185,0,0,0-.117-0.172,12.688,12.688,0,0,0-4.193-.979,7.3,7.3,0,0,0-2.314.365,0.753,0.753,0,0,1-.234.038,0.74,0.74,0,0,1-.662-1.072,0.732,0.732,0,0,1,.428-0.371,8.765,8.765,0,0,1,2.775-.441,12.555,12.555,0,0,1,5.373,1.346L77.2,29.146a18.291,18.291,0,0,1,3.864,2.5,0.74,0.74,0,0,1-.982,1.108A16.408,16.408,0,0,0,77.9,31.2a0.181,0.181,0,0,0-.095-0.027,0.185,0.185,0,0,0-.185.185V40.8a0.185,0.185,0,0,0,.185.185h2.776a0.74,0.74,0,1,1,0,1.48H77.8a0.185,0.185,0,0,0-.185.185v6.835a0.185,0.185,0,0,0,.112.17,7.135,7.135,0,0,0,2.848.581,0.74,0.74,0,0,1,0,1.48,8.561,8.561,0,0,1-2.718-.432,0.177,0.177,0,0,0-.058-0.009,0.188,0.188,0,0,0-.109.035,0.185,0.185,0,0,0-.076.15v6.918a0.185,0.185,0,0,0,.185.185h3.225a0.185,0.185,0,0,0,.131-0.316l-1.1-1.1a0.74,0.74,0,0,1,.524-1.264,0.734,0.734,0,0,1,.523.216l2.683,2.683a0.741,0.741,0,0,1,0,1.047L81.1,62.509A0.736,0.736,0,0,1,80.577,62.726ZM67.9,46.165c-5.853,0-9.294,3.144-12.33,5.918-0.674.616-1.31,1.2-1.959,1.734a25.939,25.939,0,0,1-6.735,4.392,0.185,0.185,0,0,0,.076.354h29a0.185,0.185,0,0,0,.185-0.185V50.626a0.185,0.185,0,0,0-.093-0.161A22.873,22.873,0,0,1,73.5,48.7C71.722,47.339,70.186,46.165,67.9,46.165ZM57.447,68a4.446,4.446,0,0,1-4.441-4.441,0.74,0.74,0,1,1,1.48,0,2.964,2.964,0,0,0,2.961,2.961H73.176a2.964,2.964,0,0,0,2.961-2.961,0.74,0.74,0,1,1,1.48,0A4.446,4.446,0,0,1,73.176,68H57.447ZM49.12,42.464a0.74,0.74,0,1,1,0-1.48h3.7a0.74,0.74,0,1,1,0,1.48h-3.7Zm18.5,0a0.74,0.74,0,1,1,0-1.48h3.7a0.74,0.74,0,1,1,0,1.48h-3.7Zm-1.8-10.546a0.74,0.74,0,1,1,.74-0.74A0.741,0.741,0,0,1,65.822,31.918Z"/>
</svg>
