<svg xmlns="http://www.w3.org/2000/svg" width="80" height="68" viewBox="0 0 80 68">
  <defs>
    <style>
      .cls-1 {
        fill: #edf5ff;
      }

      .cls-1, .cls-2 {
        fill-rule: evenodd;
      }

      .cls-2 {
        fill: #99f;
      }
    </style>
  </defs>
  <path id="Shape_1_copy" data-name="Shape 1 copy" class="cls-1" d="M43.168,0C31.386,1.362,20.5,7.236,10.354,13.095-7.712,23.614-.7,40.624,7.356,55.414,16.8,72.427,28.264,70.341,42.423,60.109c11.554-8.118,27.156-18.616,24.207-34.835C63.894,13.575,57.167.334,43.168,0Z"/>
  <path class="cls-2" d="M68.332,67a22.108,22.108,0,0,1-5.862-.863,32.767,32.767,0,0,1-5.912-2.309,0.138,0.138,0,0,0-.062-0.015,0.14,0.14,0,0,0-.062.015,28.843,28.843,0,0,1-9.568,3.036,19.313,19.313,0,0,1-2.2.131,11.71,11.71,0,0,1-8.517-3.146,11.394,11.394,0,0,1-3.117-7.559,23.275,23.275,0,0,1,1.637-9.294,0.139,0.139,0,0,0-.044-0.157,4.247,4.247,0,0,1,0-6.676A0.138,0.138,0,0,0,34.666,40a23.274,23.274,0,0,1-1.637-9.295,11.391,11.391,0,0,1,3.117-7.559,11.751,11.751,0,0,1,8.547-3.143,20.914,20.914,0,0,1,4.449.511,31.331,31.331,0,0,1,7.287,2.655,0.139,0.139,0,0,0,.124,0,32.821,32.821,0,0,1,5.916-2.312A22.109,22.109,0,0,1,68.332,20a11.711,11.711,0,0,1,8.516,3.151c3.167,3.166,3.98,8.272,2.289,14.377a32.764,32.764,0,0,1-2.312,5.916,0.14,0.14,0,0,0,0,.124,31.326,31.326,0,0,1,2.655,7.286c1.2,5.482.267,10.1-2.632,13A11.71,11.71,0,0,1,68.332,67ZM60.2,61.7a0.138,0.138,0,0,0-.075.022c-0.724.463-1.458,0.9-2.184,1.309a0.139,0.139,0,0,0,.009.247,30.977,30.977,0,0,0,4.811,1.8,20.986,20.986,0,0,0,5.563.822,10.635,10.635,0,0,0,7.734-2.826,10.664,10.664,0,0,0,2.825-7.734,25,25,0,0,0-2.613-10.371,0.138,0.138,0,0,0-.121-0.079h0a0.138,0.138,0,0,0-.121.071,46.846,46.846,0,0,1-7.835,10.244c-0.387.387-.792,0.778-1.2,1.164a0.139,0.139,0,0,0-.023.174,4.252,4.252,0,0,1-6.661,5.2A0.139,0.139,0,0,0,60.2,61.7Zm-24.444-14.2a0.139,0.139,0,0,0-.13.091c-2.419,6.593-1.946,12.235,1.3,15.481A10.685,10.685,0,0,0,44.7,65.88a25.019,25.019,0,0,0,10.334-2.606,0.139,0.139,0,0,0,.009-0.247A46.847,46.847,0,0,1,44.8,55.194a48.429,48.429,0,0,1-6.194-7.556,0.139,0.139,0,0,0-.116-0.062,0.129,0.129,0,0,0-.039.006,4.253,4.253,0,0,1-2.644-.082A0.129,0.129,0,0,0,35.761,47.492ZM41.5,43.259c0,0.079.006,0.159,0.006,0.241A4.26,4.26,0,0,1,39.677,47a0.139,0.139,0,0,0-.037.191,47.426,47.426,0,0,0,5.946,7.222,45.708,45.708,0,0,0,10.842,8.106,0.136,0.136,0,0,0,.129,0c0.973-.512,1.955-1.083,2.918-1.7a0.139,0.139,0,0,0,.05-0.179,4.206,4.206,0,0,1-.438-1.878,4.255,4.255,0,0,1,.527-2.051l0.955,0.568a3.146,3.146,0,1,0,.956-1.083l-0.682-.877a4.213,4.213,0,0,1,2.5-.811,4.256,4.256,0,0,1,2.744,1.007,0.139,0.139,0,0,0,.185,0c0.388-.363.77-0.734,1.136-1.1a45.719,45.719,0,0,0,8.108-10.845,0.14,0.14,0,0,0,0-.129,43.611,43.611,0,0,0-5.187-7.658,0.14,0.14,0,0,0-.184-0.026,4.252,4.252,0,0,1-5.9-5.9,0.139,0.139,0,0,0-.026-0.183,43.572,43.572,0,0,0-7.658-5.187,0.136,0.136,0,0,0-.129,0A45.707,45.707,0,0,0,45.586,32.59a47.431,47.431,0,0,0-5.943,7.217A0.138,0.138,0,0,0,39.68,40,4.281,4.281,0,0,1,41,41.471l-0.993.5a3.146,3.146,0,1,0,.4,1.53c0-.047,0-0.095,0-0.143ZM71.226,29.716a4.248,4.248,0,0,1-.1,5.12,0.14,0.14,0,0,0,0,.175,45.212,45.212,0,0,1,4.89,7.043,0.138,0.138,0,0,0,.121.071h0.005a0.138,0.138,0,0,0,.121-0.08,30.954,30.954,0,0,0,1.8-4.814c1.579-5.7.867-10.425-2-13.3a10.635,10.635,0,0,0-7.734-2.826,21.022,21.022,0,0,0-5.563.822,31.055,31.055,0,0,0-4.815,1.8,0.139,0.139,0,0,0-.009.247,45.266,45.266,0,0,1,7.044,4.889,0.138,0.138,0,0,0,.175,0,4.208,4.208,0,0,1,2.621-.907,4.254,4.254,0,0,1,2.052.527l-0.568.954a3.145,3.145,0,1,0,1.661,2.774A3.109,3.109,0,0,0,70.35,30.4Zm-26.533-8.6a10.676,10.676,0,0,0-7.763,2.825c-3.245,3.245-3.719,8.887-1.3,15.481a0.138,0.138,0,0,0,.178.082,4.25,4.25,0,0,1,1.448-.254,4.293,4.293,0,0,1,1.2.171,0.143,0.143,0,0,0,.039.006,0.14,0.14,0,0,0,.116-0.063A48.456,48.456,0,0,1,44.8,31.805a46.831,46.831,0,0,1,10.244-7.834,0.139,0.139,0,0,0-.009-0.247A25.039,25.039,0,0,0,44.694,21.111ZM55.063,51.916v-1.11h6.105a0.139,0.139,0,0,0,.139-0.139V48.911h1.11v1.757a0.139,0.139,0,0,0,.139.139h2.5a0.139,0.139,0,0,0,.139-0.139v-3.5a2.229,2.229,0,0,0-1.617-2.137l-0.385-.108,0.3-1.069,0.385,0.109a3.342,3.342,0,0,1,2.426,3.2v3.5a0.139,0.139,0,0,0,.139.139h1.295v1.11H55.063Zm-9.8,0v-1.11h1.295a0.139,0.139,0,0,0,.139-0.139v-3.5a3.342,3.342,0,0,1,2.426-3.2l4.688-1.322a0.139,0.139,0,0,0,.1-0.134V40.669a0.139,0.139,0,0,0-.061-0.115,4.72,4.72,0,0,1-2.067-3.9V34.62a4.718,4.718,0,0,1,9.435,0v2.035a4.72,4.72,0,0,1-2.067,3.9,0.139,0.139,0,0,0-.061.115v1.843a0.14,0.14,0,0,0,.1.134l2.7,0.761-0.3,1.069L58.829,43.7a0.136,0.136,0,0,0-.038-0.006,0.139,0.139,0,0,0-.1.046,2.974,2.974,0,0,1-4.384,0,0.138,0.138,0,0,0-.1-0.046,0.137,0.137,0,0,0-.038.006l-4.746,1.338A2.229,2.229,0,0,0,47.8,47.173v3.5a0.139,0.139,0,0,0,.139.139h2.5a0.139,0.139,0,0,0,.139-0.139V48.911h1.11v1.757a0.139,0.139,0,0,0,.139.139H53.4v1.11h-8.14Zm9.9-10.735a0.139,0.139,0,0,0-.139.139v1.492a0.14,0.14,0,0,0,.031.087,1.864,1.864,0,0,0,2.9,0,0.14,0.14,0,0,0,.031-0.087V41.321a0.14,0.14,0,0,0-.139-0.139,0.141,0.141,0,0,0-.038.006,4.694,4.694,0,0,1-2.605,0A0.14,0.14,0,0,0,55.156,41.182Zm-2.128-6.469a0.139,0.139,0,0,0-.139.139v1.8a3.608,3.608,0,0,0,7.1.921,0.138,0.138,0,0,0-.023-0.119l-2.034-2.689a0.137,0.137,0,0,0-.111-0.055H53.028Zm6.827,0.764a0.139,0.139,0,0,0,.111.055,0.139,0.139,0,0,0,.139-0.139V34.62a3.607,3.607,0,0,0-7.008-1.2,0.138,0.138,0,0,0,.131.185h5.211ZM58.378,46.453l0.3-1.068,1.687,0.475-0.3,1.068Zm3.288,0.925,0.3-1.069,1.068,0.3-0.3,1.068ZM67.228,32.77V31.66h1.11v1.11h-1.11Zm-4.44,26.546v-1.11H63.9v1.11h-1.11ZM36.7,44.055v-1.11h1.11v1.11H36.7Z"/>
</svg>
