<svg xmlns="http://www.w3.org/2000/svg" width="85" height="68" viewBox="0 0 85 68">
  <defs>
    <style>
      .cls-1 {
        fill: #ffefcd;
      }

      .cls-1, .cls-2 {
        fill-rule: evenodd;
      }

      .cls-2 {
        fill: #f6c04b;
      }
    </style>
  </defs>
  <path class="cls-1" d="M23.917,0c11.825,1.363,22.754,7.237,32.934,13.1,18.133,10.519,11.1,27.529,3.009,42.319-9.481,17.013-20.985,14.927-35.2,4.695C13.067,51.991-2.591,41.493.368,25.274,3.114,13.575,9.866.334,23.917,0Z"/>
  <path class="cls-2" d="M58.643,68A0.644,0.644,0,0,1,58,67.357V64.785a0.214,0.214,0,0,0-.214-0.214H49.214a0.643,0.643,0,0,1-.643-0.643v-6a0.214,0.214,0,0,0-.214-0.214H41.5a0.214,0.214,0,0,0-.214.214v5.143a0.64,0.64,0,0,1-.108.356L39.463,66a0.643,0.643,0,0,1-1.07,0l-1.714-2.572a0.639,0.639,0,0,1-.108-0.356V45.929a0.215,0.215,0,0,0-.214-0.215H35.5a0.215,0.215,0,0,0-.214.215v5.785H34V45.071a0.644,0.644,0,0,1,.643-0.643h1.714a0.214,0.214,0,0,0,.214-0.215V39.928a0.644,0.644,0,0,1,.643-0.643,0.214,0.214,0,0,0,.214-0.214V34.785a0.644,0.644,0,0,1,.643-0.643H48.357a0.214,0.214,0,0,0,.214-0.214V24.5a0.644,0.644,0,0,1,.643-0.643h3.429a0.214,0.214,0,0,0,.214-0.214v-6A0.643,0.643,0,0,1,53.5,17H82.643a0.643,0.643,0,0,1,.643.643V49.357a0.214,0.214,0,0,0,.214.214h0.857a0.644,0.644,0,0,1,.643.643V67.357a0.644,0.644,0,0,1-.643.643H58.643ZM59.5,52.571a0.2,0.2,0,0,0-.068.011,0.213,0.213,0,0,0-.147.2V66.5a0.214,0.214,0,0,0,.214.214h24a0.214,0.214,0,0,0,.214-0.214V52.786a0.213,0.213,0,0,0-.147-0.2,0.2,0.2,0,0,0-.068-0.011,0.213,0.213,0,0,0-.171.086l-7.2,9.6a5.786,5.786,0,0,1-9.257,0l-7.2-9.6A0.214,0.214,0,0,0,59.5,52.571ZM38.071,45.714a0.215,0.215,0,0,0-.214.215V62.811a0.214,0.214,0,0,0,.036.119l0.857,1.286a0.214,0.214,0,0,0,.356,0l0.857-1.286A0.214,0.214,0,0,0,40,62.811V45.929a0.215,0.215,0,0,0-.214-0.215H38.071Zm22.286,5.143a0.214,0.214,0,0,0-.171.343L67.9,61.485a4.512,4.512,0,0,0,.9.9,4.5,4.5,0,0,0,6.3-.9L82.814,51.2a0.214,0.214,0,0,0-.171-0.343H60.357ZM50.071,57.714a0.214,0.214,0,0,0-.214.214v5.143a0.214,0.214,0,0,0,.214.214h7.714A0.214,0.214,0,0,0,58,63.071V50.214a0.644,0.644,0,0,1,.643-0.643H77.5a0.214,0.214,0,0,0,.214-0.214v-24a0.214,0.214,0,0,0-.214-0.214H50.071a0.214,0.214,0,0,0-.214.214v8.571a0.214,0.214,0,0,0,.214.214h2.572a0.644,0.644,0,0,1,.643.643v9.428a0.644,0.644,0,0,1-.643.643H50.071a0.214,0.214,0,0,0-.214.215v1.714a0.214,0.214,0,0,0,.214.214h2.572a0.644,0.644,0,0,1,.643.643v9.428a0.644,0.644,0,0,1-.643.643H50.071ZM41.5,48.285a0.214,0.214,0,0,0-.214.214v7.714a0.214,0.214,0,0,0,.214.214H51.786A0.214,0.214,0,0,0,52,56.214V48.5a0.214,0.214,0,0,0-.214-0.214H41.5Zm12.857-30a0.214,0.214,0,0,0-.214.214v5.143a0.214,0.214,0,0,0,.214.214h24A0.644,0.644,0,0,1,79,24.5V49.357a0.214,0.214,0,0,0,.214.214h2.572A0.214,0.214,0,0,0,82,49.357V18.5a0.214,0.214,0,0,0-.214-0.214H54.357ZM41.5,44.857a0.214,0.214,0,0,0-.214.215v1.714A0.214,0.214,0,0,0,41.5,47h6.857a0.214,0.214,0,0,0,.214-0.214V45.071a0.214,0.214,0,0,0-.214-0.215H41.5Zm-3.428-4.286a0.214,0.214,0,0,0-.214.215v3.428a0.214,0.214,0,0,0,.214.215h1.714A0.214,0.214,0,0,0,40,44.214V40.786a0.214,0.214,0,0,0-.214-0.215H38.071Zm0.857-5.143a0.214,0.214,0,0,0-.214.214v3.429a0.214,0.214,0,0,0,.214.214h1.714a0.644,0.644,0,0,1,.643.643v3.428a0.214,0.214,0,0,0,.214.215H51.786A0.214,0.214,0,0,0,52,43.357V35.642a0.214,0.214,0,0,0-.214-0.214H38.929ZM63.787,48.285a8.339,8.339,0,0,1-7.748-5.221,0.214,0.214,0,0,0-.123-0.12,0.209,0.209,0,0,0-.076-0.014,0.213,0.213,0,0,0-.1.023l-0.242.121a0.647,0.647,0,0,1-.288.068,0.642,0.642,0,0,1-.643-0.643V37.357a0.64,0.64,0,0,1,.355-0.575l1.31-.655,0.077-.037a0.215,0.215,0,0,0,.1-0.092,8.357,8.357,0,0,1,15.123.794,0.213,0.213,0,0,0,.123.12,0.21,0.21,0,0,0,.076.014,0.213,0.213,0,0,0,.1-0.022l0.243-.122a0.651,0.651,0,0,1,.288-0.068,0.644,0.644,0,0,1,.643.643V42.5a0.639,0.639,0,0,1-.355.575l-1.31.655-0.077.037a0.217,0.217,0,0,0-.1.093,8.279,8.279,0,0,1-7.339,4.426H63.787Zm-4.156-6.534a6.221,6.221,0,0,0-2.322.447,0.214,0.214,0,0,0-.12.276A7.036,7.036,0,0,0,63.786,47h0.028a7.062,7.062,0,0,0,5.047-2.139,0.214,0.214,0,0,0-.154-0.363H68.685c-0.253.025-.5,0.038-0.747,0.038A7.594,7.594,0,0,1,63.4,43.014,6.291,6.291,0,0,0,59.631,41.751Zm0-1.288a7.583,7.583,0,0,1,4.542,1.522,6.258,6.258,0,0,0,6.59.594l0.835-.418a0.214,0.214,0,0,0,.119-0.191V38.744a0.215,0.215,0,0,0-.31-0.192l-0.069.035a7.533,7.533,0,0,1-7.934-.715,6.258,6.258,0,0,0-6.59-.594l-0.835.417a0.215,0.215,0,0,0-.118.192v3.226a0.214,0.214,0,0,0,.1.182,0.211,0.211,0,0,0,.113.032,0.217,0.217,0,0,0,.1-0.023l0.069-.035A7.572,7.572,0,0,1,59.628,40.463Zm0-5.141a7.579,7.579,0,0,1,4.539,1.521,6.3,6.3,0,0,0,3.77,1.263,6.222,6.222,0,0,0,2.322-.447,0.214,0.214,0,0,0,.12-0.276,7.036,7.036,0,0,0-6.6-4.526H63.758A7.062,7.062,0,0,0,58.71,35a0.214,0.214,0,0,0,.154.363h0.021A7.46,7.46,0,0,1,59.631,35.321Z"/>
</svg>
