<svg xmlns="http://www.w3.org/2000/svg" width="83" height="69" viewBox="0 0 83 69">
  <defs>
    <style>
      .cls-1 {
        fill: #fdf3ee;
      }

      .cls-1, .cls-2 {
        fill-rule: evenodd;
      }

      .cls-2 {
        fill: #f66;
      }
    </style>
  </defs>
  <path class="cls-1" d="M44.5,0C63.554,0,59,15.446,59,34.5S53.554,69,34.5,69A34.5,34.5,0,0,1,0,34.5C0,15.446,25.446,0,44.5,0Z"/>
  <path class="cls-2" d="M61.29,54.8A13.8,13.8,0,1,1,69.8,30.1a0.183,0.183,0,0,0,.113.039,0.2,0.2,0,0,0,.051-0.007,0.185,0.185,0,0,0,.123-0.113A5.938,5.938,0,0,1,75.676,26a5.532,5.532,0,0,1,1.786.288,5.815,5.815,0,0,1-2,11.326h0c-0.182,0-.369-0.007-0.555-0.021H74.894a0.187,0.187,0,0,0-.182.224A13.861,13.861,0,0,1,72.038,49.6a13.263,13.263,0,0,1-7.4,4.786A13.98,13.98,0,0,1,61.29,54.8Zm0.128-26.372a13.768,13.768,0,0,0-2.346.207,12.579,12.579,0,0,0,2.184,24.949h0c0.086,0,.171,0,0.257,0A12.75,12.75,0,0,0,73.939,41a0.183,0.183,0,0,0,0-.035q-0.074-.445-0.145-0.889c-0.13-.8-0.264-1.636-0.434-2.448a1.426,1.426,0,0,0-.622-0.795,5.872,5.872,0,0,1-2.86-4.529,1.456,1.456,0,0,0-.483-0.889A12.242,12.242,0,0,0,61.418,28.425Zm14.2-1.193a4.576,4.576,0,0,0-4.546,4.592,4.587,4.587,0,0,0,4.569,4.563h0.015a4.578,4.578,0,0,0-.026-9.155H75.62ZM43.854,32.823l-0.133,0a5.81,5.81,0,0,1-5.713-5.885,5.918,5.918,0,0,1,1.734-4.073,5.645,5.645,0,0,1,4.01-1.671h0.111a5.8,5.8,0,0,1,4.124,1.824,5.729,5.729,0,0,1,1.593,4.118A5.821,5.821,0,0,1,43.854,32.823ZM43.8,22.431a4.57,4.57,0,0,0-3.256,7.789,4.515,4.515,0,0,0,3.213,1.37h0.023a4.587,4.587,0,0,0,3.237-7.81,4.491,4.491,0,0,0-3.2-1.348H43.8ZM60.856,66a1.906,1.906,0,0,1-2.09-1.459,2.986,2.986,0,0,1-.053-0.653c0-.868,0-1.751,0-2.6V60.671c0-1.614.639-2.273,2.2-2.273h0.106a2.74,2.74,0,0,1,1.1.227,1.77,1.77,0,0,1,1,1.689c0.01,0.442.008,0.894,0.005,1.331,0,0.189,0,.378,0,0.566a0.186,0.186,0,0,0,0,.029v0.469q0,0.525,0,1.053A1.957,1.957,0,0,1,60.873,66H60.856Zm0.073-6.414a0.791,0.791,0,0,0-.99.777q0,0.966,0,1.931,0,0.847,0,1.694a0.754,0.754,0,0,0,.948.772l0.14,0a0.906,0.906,0,0,0,.663-0.214,0.772,0.772,0,0,0,.188-0.585c-0.009-.4-0.007-0.817,0-1.217q0-.248,0-0.5a0.183,0.183,0,0,0,0-.035q0-.275,0-0.55c0-.413,0-0.84,0-1.259a0.785,0.785,0,0,0-.194-0.593,1.011,1.011,0,0,0-.749-0.226H60.929ZM66.338,66a1.884,1.884,0,0,1-2.046-2.035c0-.414,0-0.836,0-1.244q0-.284,0-0.568a0.185,0.185,0,0,0,0-.04q0-.245,0-0.49c0-.383,0-0.777,0-1.165a1.871,1.871,0,0,1,2.052-2.07h0.185a3.167,3.167,0,0,1,.806.074,1.873,1.873,0,0,1,1.361,1.886c0.023,1.422.023,2.591,0,3.679C68.654,65.657,67.42,66,66.39,66H66.338Zm0.151-6.416a0.819,0.819,0,0,0-.994.834v0.97q0,1.293,0,2.585a0.811,0.811,0,0,0,1.027.794h0.01a1,1,0,0,0,.74-0.224,0.791,0.791,0,0,0,.192-0.6c-0.008-.392-0.006-0.792,0-1.178,0-.17,0-0.338,0-0.508s0-.367,0-0.551c0-.411-0.006-0.835.006-1.25a0.834,0.834,0,0,0-.2-0.635,1.041,1.041,0,0,0-.766-0.239H66.489ZM40.6,47.607a2.608,2.608,0,0,1-1.833-4.454,2.573,2.573,0,0,1,1.836-.777h0.035a2.616,2.616,0,0,1-.032,5.231H40.6ZM40.6,43.623a1.383,1.383,0,0,0-1.379,1.353,1.356,1.356,0,0,0,.385.969,1.371,1.371,0,0,0,.975.419H40.6a1.371,1.371,0,0,0,.019-2.742H40.6ZM56.882,65.991a0.6,0.6,0,0,1-.559-0.684c-0.014-1-.012-2.023-0.011-3.01q0-.6,0-1.2V60.346a0.186,0.186,0,0,0-.186-0.187,0.18,0.18,0,0,0-.062.011,2.53,2.53,0,0,1-.8.18,0.467,0.467,0,0,1-.485-0.309c-0.128-.284-0.17-0.574.7-1.014l0.311-.159c0.253-.13.514-0.265,0.776-0.382a0.986,0.986,0,0,1,.4-0.093,0.567,0.567,0,0,1,.556.659c0.013,1.633.01,3.295,0.007,4.9q0,0.68,0,1.36a0.593,0.593,0,0,1-.593.675Zm-5.535-1.629c-0.548,0-.581-0.27-0.6-0.826a2.629,2.629,0,0,0-.055-0.547,0.186,0.186,0,0,0-.166-0.14c-1.285-.1-1.375-0.319-1.372-0.668,0-.332.06-0.487,1.4-0.663a0.186,0.186,0,0,0,.158-0.148,3.028,3.028,0,0,0,.042-0.5C50.768,60.3,50.8,60,51.343,60h0.042c0.536,0.015.567,0.321,0.578,0.906a4.009,4.009,0,0,0,.026.455,0.186,0.186,0,0,0,.15.158,3.352,3.352,0,0,0,.5.042c0.592,0.02.9,0.058,0.894,0.633-0.006.554-.312,0.592-0.9,0.616a3.472,3.472,0,0,0-.474.04,0.185,0.185,0,0,0-.148.142,2.861,2.861,0,0,0-.051.532c-0.019.564-.052,0.835-0.6,0.835H51.347ZM61.7,26.017A0.624,0.624,0,0,1,61.1,25.3c-0.017-1.571-.018-3.107,0-4.563A0.642,0.642,0,0,1,61.7,20h0.033a0.645,0.645,0,0,1,.577.748c0.006,0.518,0,1.045,0,1.555q0,0.317,0,.633a0.186,0.186,0,0,0,0,.034c0,0.229,0,.459,0,0.689,0,0.522,0,1.062,0,1.593a0.645,0.645,0,0,1-.6.764H61.7Zm2.338,0.029C64,26.023,63.967,26,63.929,25.977a0.882,0.882,0,0,1-.333-0.284,0.765,0.765,0,0,1,.009-0.6,23.947,23.947,0,0,1,2.164-2.164,0.474,0.474,0,0,1,.256-0.052,0.747,0.747,0,0,1,.42.1,0.913,0.913,0,0,1,.17.643c-0.585.674-1.245,1.318-1.883,1.942l-0.415.407a0.776,0.776,0,0,1-.139.038C64.138,26.022,64.091,26.032,64.038,26.046Zm-4.7-.027a0.776,0.776,0,0,1-.525-0.255L58.542,25.5c-0.538-.522-1.095-1.063-1.59-1.634a0.923,0.923,0,0,1-.137-0.712,0.89,0.89,0,0,1,.333-0.311c0.051-.036.1-0.072,0.154-0.111l0.166,0.093a1.668,1.668,0,0,1,.356.233c0.591,0.57,1.2,1.176,1.848,1.852a0.623,0.623,0,0,1,.071.93A0.56,0.56,0,0,1,59.342,26.019Zm16.242,27.99c-0.417,0-.824-0.01-1.21-0.03a0.53,0.53,0,0,1-.389-0.166,0.635,0.635,0,0,1-.124-0.478,0.541,0.541,0,0,1,.593-0.545c0.138-.006.287-0.009,0.467-0.009l0.372,0,0.376,0,0.358,0,0.359,0c0.17,0,.31,0,0.441.008a0.563,0.563,0,0,1,.609.592,0.523,0.523,0,0,1-.519.6C76.445,54,76.009,54.009,75.584,54.009ZM81.1,54.02c-0.364,0-.728-0.008-1.082-0.022a0.636,0.636,0,0,1-.469-0.21,0.558,0.558,0,0,1-.125-0.43,0.573,0.573,0,0,1,.639-0.571c0.149,0,.3,0,0.447,0h0.716a0.168,0.168,0,0,0,.032,0l0.328,0,0.357,0c0.171,0,.311,0,0.443.006a0.555,0.555,0,0,1,.615.579,0.537,0.537,0,0,1-.553.624C81.993,54.01,81.54,54.02,81.1,54.02Zm-2.688-1.628a0.556,0.556,0,0,1-.58-0.611c-0.008-.283-0.006-0.572,0-0.851,0-.124,0-0.248,0-0.372s0-.245,0-0.368c0-.261-0.005-0.531.006-0.794a0.538,0.538,0,0,1,.586-0.6h0.012a0.527,0.527,0,0,1,.584.575c0.022,0.812.021,1.635,0,2.446a0.527,0.527,0,0,1-.576.571H78.412Zm-0.011,5.6a0.538,0.538,0,0,1-.569-0.566c-0.013-.283-0.01-0.574-0.006-0.856,0-.121,0-0.242,0-0.363s0-.261,0-0.391c0-.272-0.006-0.554.007-0.828a0.535,0.535,0,0,1,.6-0.584,0.517,0.517,0,0,1,.583.529c0.029,0.88.025,1.74-.01,2.556a0.508,0.508,0,0,1-.563.5H78.4ZM44.609,51.295a0.717,0.717,0,0,1-.7-0.711,0.724,0.724,0,0,1,.708-0.715H44.65a0.719,0.719,0,0,1,.671.738,0.692,0.692,0,0,1-.7.687H44.609Zm21.127-2.872c-1.056,0-1.994,0-2.868-.016a2.417,2.417,0,0,1-.927-0.219c-0.305-.137-0.61-0.3-0.9-0.45-0.368-.192-0.748-0.391-1.14-0.552a6.459,6.459,0,0,0-1.291-.331l-0.235-.044a1.182,1.182,0,0,0-.227-0.023,0.793,0.793,0,0,0-.74.52,0.858,0.858,0,0,1-.6.285c-0.688.016-1.434,0.024-2.282,0.024-0.761,0-1.533-.006-2.26-0.013-0.474,0-.714-0.144-0.715-0.9,0-2.026,0-4.088,0-6.08V38.8c0-.113,0-0.225,0-0.338,0-.329,0-0.67.008-1a0.6,0.6,0,0,1,.658-0.668c0.937-.01,1.7-0.015,2.4-0.015,0.814,0,1.552.007,2.255,0.02a0.743,0.743,0,0,1,.518.258,0.644,0.644,0,0,0,.576.4,1.424,1.424,0,0,0,.41-0.084,5.081,5.081,0,0,0,3.349-3.084c0.3-.738.6-1.54,0.941-2.526a0.706,0.706,0,0,1,.735-0.558h0.041c0.123,0,.246,0,0.37,0l0.314,0,0.311,0c0.1,0,.193,0,0.289,0,0.585,0.013.738,0.168,0.778,0.787a17.638,17.638,0,0,1-.541,5.044c-0.012.05-.02,0.1-0.032,0.177-0.006.041-.014,0.089-0.024,0.148a0.187,0.187,0,0,0,.041.152,0.184,0.184,0,0,0,.142.066h3.962a1.741,1.741,0,0,1,2.023,2.029v1.237c0,1.571,0,3.2,0,4.793a2.593,2.593,0,0,1-2.779,2.779C67.587,48.419,66.664,48.423,65.736,48.423Zm-7.206-2.894a5.531,5.531,0,0,1,2.57.865c0.179,0.094.364,0.192,0.549,0.284,0.076,0.038.152,0.077,0.227,0.116,0.148,0.077.3,0.156,0.457,0.226a1.3,1.3,0,0,0,.512.147q1.455,0.006,2.909.008c1.045,0,1.962,0,2.8-.014a1.159,1.159,0,0,0,1.153-.893,0.189,0.189,0,0,0-.025-0.162,0.186,0.186,0,0,0-.143-0.079l-0.194-.01L69.056,46c-0.683-.026-0.779-0.329-0.786-0.59,0-.148-0.016-0.6.8-0.623a0.853,0.853,0,0,0,.708-0.2,0.972,0.972,0,0,0-.042-0.815,0.185,0.185,0,0,0-.157-0.133c-0.123-.014-0.254-0.016-0.38-0.018-0.57-.009-0.869-0.039-0.9-0.564a0.664,0.664,0,0,1,.112-0.489,1.116,1.116,0,0,1,.75-0.19,3.053,3.053,0,0,0,.528-0.056,0.186,0.186,0,0,0,.144-0.171c0-.047.006-0.091,0.01-0.132a1.923,1.923,0,0,0,.01-0.27,1.733,1.733,0,0,0-.041-0.258c-0.006-.03-0.013-0.059-0.018-0.088a0.186,0.186,0,0,0-.16-0.152c-1.346-.164-1.386-0.312-1.352-0.661,0.055-.562.346-0.592,0.9-0.6a3.476,3.476,0,0,0,.456-0.026,0.186,0.186,0,0,0,.152-0.135,0.916,0.916,0,0,0-.044-0.779,0.8,0.8,0,0,0-.664-0.241H69.031c-0.657.013-1.369,0.019-2.242,0.019q-0.766,0-1.532,0l-0.883,0a0.944,0.944,0,0,1-.749-0.225,1,1,0,0,1-.068-0.816q0.088-.439.179-0.878c0.173-.84.353-1.708,0.486-2.572a6.223,6.223,0,0,0,.03-1.188c-0.007-.171-0.014-0.348-0.014-0.519a0.187,0.187,0,0,0-.1-0.165l-0.213-.113a0.185,0.185,0,0,0-.16-0.007,0.188,0.188,0,0,0-.105.122c-1.066,3.911-2.894,5.849-5.928,6.284a0.186,0.186,0,0,0-.159.185v6.505a0.186,0.186,0,0,0,.185.186,0.2,0.2,0,0,0,.043,0A3.1,3.1,0,0,1,58.529,45.529Zm-5.552-7.488a0.186,0.186,0,0,0-.185.186V46.15a0.186,0.186,0,0,0,.185.186h3.109a0.186,0.186,0,0,0,.186-0.186V38.227a0.186,0.186,0,0,0-.186-0.186H52.978Zm22.283-3.2c-0.1-.037-0.209-0.078-0.335-0.123a13.406,13.406,0,0,1-1.418-.58,0.576,0.576,0,0,1-.252-0.873,0.532,0.532,0,0,1,.464-0.278,0.9,0.9,0,0,1,.456.147,2.84,2.84,0,0,0,1.466.443,2.811,2.811,0,0,0,1.571-.522,0.963,0.963,0,0,1,.517-0.187,0.527,0.527,0,0,1,.451.259,0.668,0.668,0,0,1-.291.944A4.36,4.36,0,0,1,75.261,34.839Zm2.369-3.24a0.6,0.6,0,0,1-.021-1.191h0.021a0.6,0.6,0,0,1,.044,1.19Zm-4.012,0a0.6,0.6,0,0,1,.03-1.195l0.052,0a0.6,0.6,0,0,1-.05,1.193H73.617ZM43.441,30.042c-0.09-.034-0.2-0.071-0.322-0.113A12.312,12.312,0,0,1,41.7,29.37a0.675,0.675,0,0,1-.381-0.413,0.611,0.611,0,0,1,.089-0.494,0.527,0.527,0,0,1,.457-0.276,0.931,0.931,0,0,1,.465.15,2.863,2.863,0,0,0,1.461.436,2.827,2.827,0,0,0,1.577-.522,0.956,0.956,0,0,1,.511-0.184,0.531,0.531,0,0,1,.454.266,0.652,0.652,0,0,1-.254.91A4.35,4.35,0,0,1,43.441,30.042ZM41.8,26.8a0.571,0.571,0,0,1-.591-0.559,0.609,0.609,0,0,1,.156-0.455,0.588,0.588,0,0,1,.433-0.18,0.6,0.6,0,0,1,.028,1.194H41.8Zm3.95,0a0.6,0.6,0,0,1,.035-1.2h0.029a0.6,0.6,0,0,1-.034,1.2H45.748Z"/>
</svg>
