<svg xmlns="http://www.w3.org/2000/svg" width="66" height="68" viewBox="0 0 66 68">
  <defs>
    <style>
      .cls-1 {
        fill: #fdf3ee;
      }

      .cls-1, .cls-2 {
        fill-rule: evenodd;
      }

      .cls-2 {
        fill: #82c68f;
      }
    </style>
  </defs>
  <path class="cls-1" d="M23.5,0a33.5,33.5,0,1,1,0,67C5,67,0,52,0,33.5S5,0,23.5,0ZM127,37"/>
  <path class="cls-2" d="M61.885,68a1.035,1.035,0,0,1-.736-0.305l-5.473-5.473h0L52.057,58.6a1.041,1.041,0,0,1,0-1.473l0.1-.1a0.182,0.182,0,0,0,0-.257l-2.431-2.43a0.181,0.181,0,0,0-.241-0.013,18.148,18.148,0,0,1-8.127,3.694,0.182,0.182,0,0,0-.149.178v4.537a0.5,0.5,0,0,1-1,0V58.4a0.181,0.181,0,0,0-.181-0.181H40.009c-0.42.043-.856,0.071-1.3,0.085a0.181,0.181,0,0,0-.176.181v7.455a0.5,0.5,0,0,1-1,0V58.473a0.182,0.182,0,0,0-.173-0.181c-0.43-.018-0.866-0.053-1.3-0.1H36.05a0.182,0.182,0,0,0-.181.181v4.374a0.5,0.5,0,0,1-1,0V58.162a0.182,0.182,0,0,0-.147-0.178A18.156,18.156,0,1,1,50.363,26.716a0.5,0.5,0,1,1-.67.737,17.15,17.15,0,1,0,1.924,2.06A0.5,0.5,0,0,1,52.4,28.9a17.824,17.824,0,0,1,3.7,8.48,0.181,0.181,0,0,0,.179.154h4.581a0.5,0.5,0,0,1,0,1H56.436a0.181,0.181,0,0,0-.181.2c0.033,0.426.051,0.863,0.054,1.3a0.181,0.181,0,0,0,.181.18H64.1a0.5,0.5,0,0,1,0,1H56.451a0.181,0.181,0,0,0-.181.169c-0.028.432-.073,0.869-0.132,1.3a0.181,0.181,0,0,0,.179.206h4.544a0.5,0.5,0,1,1,0,1H56.076A0.181,0.181,0,0,0,55.9,44a18.2,18.2,0,0,1-3.565,7.477,0.181,0.181,0,0,0,.013.241l2.43,2.431a0.181,0.181,0,0,0,.256,0l0.1-.1a1.041,1.041,0,0,1,1.473,0l6.383,6.383a0.5,0.5,0,1,1-.7.7L60,58.858a0.181,0.181,0,0,0-.256,0L56.859,61.74a0.182,0.182,0,0,0-.053.128,0.18,0.18,0,0,0,.053.128l4.9,4.9a0.181,0.181,0,0,0,.256,0l2.881-2.881a0.181,0.181,0,0,0,0-.256l-0.565-.565a0.5,0.5,0,1,1,.7-0.7l0.661,0.661a1.042,1.042,0,0,1,0,1.473l-3.073,3.073A1.037,1.037,0,0,1,61.885,68ZM57.947,56.885a0.182,0.182,0,0,0-.128.053l-2.881,2.881a0.181,0.181,0,0,0,0,.256l0.961,0.96a0.18,0.18,0,0,0,.256,0l2.881-2.881a0.181,0.181,0,0,0,0-.256l-0.96-.96A0.182,0.182,0,0,0,57.947,56.885ZM55.866,54.8a0.181,0.181,0,0,0-.128.053l-2.881,2.882a0.181,0.181,0,0,0,0,.256l1.12,1.12a0.181,0.181,0,0,0,.256,0l2.881-2.881a0.181,0.181,0,0,0,0-.256l-1.12-1.121A0.181,0.181,0,0,0,55.866,54.8Zm-4.284-2.36a0.181,0.181,0,0,0-.129.057c-0.3.328-.624,0.648-0.952,0.952a0.181,0.181,0,0,0,0,.261l2.36,2.359a0.181,0.181,0,0,0,.256,0l0.96-.96a0.181,0.181,0,0,0,0-.256L51.714,52.5a0.18,0.18,0,0,0-.128-0.053h0Zm-13.426,3.15a15.757,15.757,0,0,1-9.35-3.152,0.5,0.5,0,0,1,.3-0.9,0.491,0.491,0,0,1,.3.1A14.756,14.756,0,0,0,38.161,54.6a14.443,14.443,0,0,0-.006-28.886,14.266,14.266,0,0,0-10.174,4.234A14.611,14.611,0,0,0,23.713,40.16a14.092,14.092,0,0,0,3.628,9.6,0.5,0.5,0,1,1-.74.666A15.085,15.085,0,0,1,22.716,40.15a15.6,15.6,0,0,1,4.559-10.906,15.255,15.255,0,0,1,10.88-4.528A15.439,15.439,0,0,1,38.157,55.594ZM28.644,40.97a0.5,0.5,0,1,1,0-1h0.909a0.181,0.181,0,0,0,.181-0.181V32.5a0.861,0.861,0,0,1,.86-0.86h4.392a0.182,0.182,0,0,0,.181-0.181v-2.4a0.861,0.861,0,0,1,.86-0.86h4.709a0.861,0.861,0,0,1,.86.86V34.9a0.181,0.181,0,0,0,.181.181h4.392a0.861,0.861,0,0,1,.86.86v3.849a0.181,0.181,0,0,0,.181.181H48.12a0.5,0.5,0,1,1,0,1H28.644Zm13.133-4.889a0.181,0.181,0,0,0-.181.181v3.532a0.181,0.181,0,0,0,.181.181h4.075a0.181,0.181,0,0,0,.181-0.181V36.261a0.181,0.181,0,0,0-.181-0.181H41.778ZM36.344,29.2a0.181,0.181,0,0,0-.181.181V39.793a0.181,0.181,0,0,0,.181.181h4.075a0.181,0.181,0,0,0,.181-0.181V29.379a0.181,0.181,0,0,0-.181-0.181H36.344Zm-5.433,3.441a0.181,0.181,0,0,0-.181.181v6.972a0.181,0.181,0,0,0,.181.181h4.075a0.181,0.181,0,0,0,.181-0.181V32.821a0.181,0.181,0,0,0-.181-0.181H30.911Zm7.152,18.411a0.5,0.5,0,0,1-.464-0.332l-1.511-4.284a0.182,0.182,0,0,0-.155-0.12H35.916a0.181,0.181,0,0,0-.158.093l-0.794,1.421a0.5,0.5,0,0,1-.435.255H30.943a0.5,0.5,0,1,1,0-1h3.189a0.182,0.182,0,0,0,.158-0.093l1.332-2.386a0.5,0.5,0,0,1,.434-0.255l0.043,0a0.5,0.5,0,0,1,.428.331l1.387,3.932a0.181,0.181,0,0,0,.169.121h0a0.181,0.181,0,0,0,.17-0.118l1.985-5.352a0.5,0.5,0,0,1,.931-0.009l1.452,3.713a0.182,0.182,0,0,0,.169.115h3.2a0.5,0.5,0,1,1,0,1H42.327a0.5,0.5,0,0,1-.464-0.316l-0.972-2.484a0.181,0.181,0,0,0-.169-0.115h0a0.18,0.18,0,0,0-.168.118l-2.018,5.441a0.5,0.5,0,0,1-.467.325H38.063Z"/>
</svg>
