<svg id="svg" version="1.1" xmlns="http://www.w3.org/2000/svg" xmlns:xlink="http://www.w3.org/1999/xlink" width="400" height="298.7577639751553" viewBox="0, 0, 400,298.7577639751553"><g id="svgg"><path id="path0" d="M70.535 53.086 C 70.207 53.481,70.201 55.150,70.502 62.731 C 70.701 67.773,70.862 77.213,70.858 83.709 L 70.852 95.519 71.824 95.855 C 72.719 96.164,78.661 98.843,83.483 101.110 C 84.593 101.632,85.501 102.167,85.501 102.300 C 85.501 102.433,85.648 102.541,85.827 102.541 C 86.119 102.541,89.895 104.218,99.103 108.437 C 100.747 109.190,102.160 109.902,102.242 110.019 C 102.361 110.188,105.103 111.456,107.848 112.612 C 108.076 112.708,108.221 112.532,108.221 112.157 C 108.221 111.093,108.703 111.186,109.946 112.488 C 111.574 114.194,112.062 114.563,112.410 114.347 C 112.573 114.247,112.706 114.310,112.706 114.487 C 112.706 114.665,114.147 115.484,115.908 116.309 C 117.669 117.133,119.183 117.904,119.271 118.022 C 119.360 118.140,119.836 118.391,120.329 118.580 C 120.822 118.769,123.916 120.162,127.205 121.676 C 130.493 123.189,133.856 124.695,134.678 125.021 C 135.499 125.347,136.239 125.723,136.322 125.856 C 136.405 125.989,138.154 126.867,140.209 127.808 C 142.265 128.748,145.662 130.309,147.759 131.276 C 149.856 132.243,151.696 133.034,151.848 133.034 C 152.000 133.034,152.302 133.210,152.520 133.425 C 152.737 133.639,154.260 134.432,155.904 135.185 C 161.398 137.703,168.151 140.724,169.133 141.103 C 169.667 141.309,170.105 141.579,170.105 141.702 C 170.105 141.825,171.551 142.565,173.318 143.346 C 175.086 144.127,178.079 145.469,179.970 146.330 C 181.861 147.190,184.000 148.145,184.722 148.452 C 185.445 148.758,186.185 149.155,186.367 149.333 C 186.548 149.510,187.773 150.143,189.088 150.739 C 190.404 151.335,193.161 152.591,195.217 153.529 C 197.272 154.468,199.425 155.368,200.000 155.529 C 200.575 155.690,201.140 155.971,201.254 156.153 C 201.369 156.336,201.511 156.422,201.570 156.344 C 203.976 153.196,204.952 151.961,205.226 151.719 C 205.412 151.555,206.153 150.613,206.871 149.626 C 208.255 147.727,214.542 139.270,217.513 135.311 C 218.486 134.014,220.695 131.028,222.422 128.676 C 224.148 126.324,226.310 123.416,227.225 122.214 C 229.505 119.223,231.773 115.994,231.594 115.994 C 231.513 115.994,230.976 116.633,230.402 117.414 C 227.762 121.006,226.935 121.963,226.742 121.652 C 226.631 121.471,226.286 121.389,225.975 121.471 C 225.665 121.552,225.411 121.488,225.411 121.330 C 225.411 121.171,225.284 121.119,225.129 121.215 C 224.811 121.412,217.937 118.429,217.937 118.094 C 217.937 117.976,217.365 117.639,216.667 117.346 C 215.282 116.766,208.490 113.731,203.737 111.568 C 202.093 110.820,200.680 110.118,200.598 110.008 C 200.516 109.899,198.868 109.095,196.936 108.224 C 195.004 107.352,193.423 106.524,193.423 106.383 C 193.423 106.243,193.188 106.126,192.900 106.124 C 192.604 106.121,192.507 106.024,192.676 105.900 C 192.840 105.779,193.236 105.209,193.555 104.634 C 194.022 103.792,196.994 99.593,198.622 97.476 C 198.872 97.152,198.865 97.099,198.594 97.261 C 198.395 97.380,196.797 99.458,195.041 101.878 C 191.959 106.124,190.958 107.405,191.484 106.428 C 191.625 106.166,191.613 106.081,191.457 106.224 C 191.309 106.359,191.187 106.628,191.185 106.822 C 191.178 107.485,189.689 109.415,189.297 109.269 C 189.083 109.190,188.984 109.249,189.078 109.400 C 189.249 109.677,185.130 115.568,178.931 123.916 C 177.099 126.383,175.051 129.213,174.379 130.206 C 172.648 132.764,172.350 132.968,171.621 132.095 C 170.771 131.077,160.220 116.945,158.534 114.566 C 156.951 112.332,156.902 112.267,156.008 111.211 C 155.660 110.800,154.631 109.454,153.720 108.221 C 152.809 106.988,150.093 103.356,147.685 100.149 C 145.276 96.943,142.383 93.042,141.254 91.480 C 140.126 89.918,139.014 88.450,138.783 88.218 C 138.116 87.549,136.005 84.701,132.752 80.081 C 132.100 79.156,131.661 78.293,131.777 78.165 C 131.893 78.036,131.831 78.021,131.640 78.130 C 131.242 78.358,128.342 74.570,128.500 74.031 C 128.555 73.845,128.499 73.793,128.375 73.917 C 128.252 74.040,127.097 72.695,125.808 70.927 C 123.408 67.634,120.899 64.359,120.368 63.827 C 119.656 63.113,121.442 65.663,124.719 70.039 C 126.661 72.634,128.251 74.888,128.251 75.047 C 128.251 75.206,128.386 75.336,128.550 75.336 C 128.714 75.336,128.838 75.572,128.825 75.859 C 128.811 76.175,128.742 76.234,128.650 76.007 C 128.567 75.801,128.370 75.711,128.212 75.809 C 128.054 75.906,126.014 75.115,123.679 74.050 C 121.343 72.985,118.983 71.943,118.435 71.735 C 117.887 71.527,117.249 71.168,117.019 70.937 C 116.639 70.557,113.360 69.031,103.905 64.833 C 102.107 64.035,100.560 63.280,100.467 63.156 C 100.375 63.031,99.223 62.439,97.907 61.838 C 96.592 61.238,94.036 60.070,92.227 59.243 C 90.419 58.416,87.695 57.203,86.175 56.546 C 84.655 55.890,83.214 55.174,82.972 54.956 C 81.907 53.995,81.608 53.811,81.104 53.807 C 80.809 53.805,80.384 53.686,80.160 53.544 C 79.680 53.240,100.218 52.807,107.819 52.961 C 110.640 53.018,112.888 52.967,112.814 52.848 C 112.501 52.344,70.957 52.578,70.535 53.086 M230.660 53.074 C 230.341 53.315,230.177 53.513,230.296 53.513 C 230.415 53.513,229.944 54.286,229.249 55.232 C 228.555 56.177,228.195 56.782,228.450 56.575 C 228.893 56.217,231.530 52.606,231.334 52.625 C 231.283 52.631,230.980 52.832,230.660 53.074 M114.834 56.753 C 117.100 59.842,118.454 61.301,116.544 58.595 C 115.674 57.362,114.571 55.949,114.093 55.456 C 113.616 54.963,113.949 55.546,114.834 56.753 M273.712 59.043 C 273.273 59.619,273.007 60.090,273.121 60.090 C 273.345 60.090,273.969 59.355,274.455 58.520 C 274.962 57.649,274.560 57.932,273.712 59.043 M301.121 60.970 C 300.751 61.278,300.448 61.634,300.448 61.759 C 300.448 61.885,300.761 61.694,301.143 61.335 C 301.525 60.976,301.951 60.784,302.088 60.909 C 302.226 61.034,302.241 60.968,302.123 60.762 C 301.861 60.307,301.934 60.291,301.121 60.970 M221.522 65.543 C 220.708 66.767,220.597 66.966,220.727 66.966 C 220.798 66.966,221.215 66.495,221.654 65.919 C 222.093 65.344,222.343 64.873,222.210 64.873 C 222.076 64.873,221.767 65.175,221.522 65.543 M295.182 68.404 C 295.296 68.589,295.115 68.911,294.780 69.120 C 294.445 69.330,294.170 69.618,294.170 69.760 C 294.170 69.902,293.733 70.571,293.199 71.246 C 292.664 71.921,292.392 72.372,292.593 72.248 C 293.437 71.727,295.663 68.494,295.323 68.284 C 295.110 68.152,295.055 68.199,295.182 68.404 M265.379 70.254 C 264.766 71.076,264.367 71.745,264.493 71.739 C 264.724 71.730,265.207 71.120,266.203 69.581 C 267.068 68.246,266.583 68.641,265.379 70.254 M313.829 72.314 C 314.280 72.953,314.692 73.437,314.745 73.389 C 314.896 73.250,313.479 71.159,313.232 71.155 C 313.110 71.153,313.379 71.674,313.829 72.314 M214.499 75.266 C 214.335 75.387,213.620 76.360,212.910 77.429 C 211.575 79.440,212.505 78.551,214.083 76.308 C 214.982 75.029,215.049 74.862,214.499 75.266 M258.256 80.043 C 257.087 81.453,256.988 81.639,257.506 81.440 C 257.776 81.336,257.997 81.071,257.997 80.850 C 257.997 80.629,258.231 80.317,258.518 80.157 C 258.804 79.997,258.960 79.787,258.865 79.692 C 258.769 79.596,258.495 79.754,258.256 80.043 M285.948 80.537 C 285.784 80.767,285.338 81.372,284.957 81.883 C 283.910 83.285,284.381 82.994,285.634 81.465 C 286.241 80.725,286.626 80.120,286.491 80.120 C 286.356 80.120,286.111 80.308,285.948 80.537 M209.865 81.614 C 209.514 82.108,209.294 82.511,209.376 82.511 C 209.459 82.511,209.813 82.108,210.164 81.614 C 210.516 81.121,210.736 80.717,210.654 80.717 C 210.571 80.717,210.217 81.121,209.865 81.614 M204.536 88.784 C 203.857 89.774,203.361 90.583,203.435 90.583 C 203.687 90.583,206.063 87.279,205.916 87.132 C 205.836 87.052,205.215 87.795,204.536 88.784 M250.549 90.433 C 249.867 91.338,249.413 92.076,249.542 92.074 C 249.671 92.072,250.288 91.332,250.915 90.430 C 252.388 88.308,252.152 88.311,250.549 90.433 M279.821 89.780 C 279.821 89.831,280.258 90.268,280.792 90.751 L 281.764 91.629 280.886 90.658 C 280.067 89.752,279.821 89.549,279.821 89.780 M202.392 91.779 C 202.040 92.272,201.820 92.676,201.902 92.676 C 201.985 92.676,202.339 92.272,202.691 91.779 C 203.042 91.286,203.262 90.882,203.180 90.882 C 203.098 90.882,202.743 91.286,202.392 91.779 M285.489 98.281 C 285.944 99.391,286.405 100.554,286.514 100.865 C 286.622 101.176,286.784 101.357,286.874 101.268 C 287.065 101.077,285.262 96.635,284.904 96.413 C 284.771 96.331,285.034 97.172,285.489 98.281 M242.796 100.813 C 241.637 102.329,240.768 103.640,240.864 103.728 C 240.960 103.815,241.099 103.717,241.173 103.511 C 241.246 103.304,241.450 103.224,241.626 103.333 C 241.816 103.450,241.859 103.389,241.732 103.184 C 241.611 102.989,241.963 102.280,242.533 101.568 C 244.173 99.519,245.224 98.057,245.058 98.057 C 244.973 98.057,243.955 99.297,242.796 100.813 M240.079 104.461 C 239.874 104.708,239.846 104.950,240.011 105.052 C 240.165 105.147,240.447 105.037,240.638 104.807 C 240.844 104.559,240.871 104.317,240.706 104.215 C 240.552 104.120,240.270 104.231,240.079 104.461 M237.011 108.595 C 233.981 112.571,231.588 115.930,232.592 114.798 C 233.714 113.532,239.205 106.129,239.021 106.129 C 238.950 106.129,238.045 107.238,237.011 108.595 M285.803 115.386 C 285.588 116.038,285.299 116.502,285.161 116.417 C 285.023 116.332,284.976 116.437,285.056 116.651 C 285.477 117.770,281.537 122.065,278.052 124.285 C 277.983 124.329,277.996 124.433,278.079 124.516 C 278.368 124.806,282.070 121.744,283.364 120.144 C 285.046 118.065,287.045 114.200,286.438 114.200 C 286.304 114.200,286.018 114.734,285.803 115.386 M320.990 118.984 C 320.904 119.312,320.939 119.581,321.069 119.581 C 321.199 119.581,321.376 119.312,321.462 118.984 C 321.548 118.655,321.512 118.386,321.382 118.386 C 321.252 118.386,321.076 118.655,320.990 118.984 M265.919 127.952 C 265.092 128.163,265.080 128.183,265.770 128.211 C 266.181 128.228,266.719 128.112,266.966 127.952 C 267.474 127.623,267.211 127.623,265.919 127.952 M250.166 130.497 C 249.129 131.934,247.644 133.933,246.866 134.940 C 246.088 135.947,243.606 139.260,241.351 142.302 C 239.095 145.344,237.109 147.996,236.936 148.196 C 236.161 149.093,235.819 149.549,234.051 152.051 C 233.018 153.512,231.177 156.030,229.960 157.645 C 228.743 159.261,227.795 160.630,227.854 160.689 C 228.174 161.009,251.944 161.198,252.140 160.882 C 252.388 160.481,256.979 160.399,257.221 160.791 C 257.308 160.931,259.098 161.125,261.200 161.224 C 276.038 161.920,288.687 169.865,291.641 180.344 C 291.676 180.467,291.737 180.669,291.777 180.792 C 291.817 180.916,291.834 181.117,291.814 181.241 C 291.795 181.364,291.928 181.465,292.110 181.465 C 292.292 181.465,292.367 181.658,292.276 181.894 C 292.185 182.130,292.242 182.367,292.401 182.420 C 292.561 182.473,292.735 183.000,292.788 183.590 C 292.841 184.181,292.974 184.810,293.085 184.989 C 293.195 185.168,293.271 185.692,293.254 186.155 C 293.236 186.617,293.317 187.494,293.434 188.104 C 293.551 188.713,293.543 189.453,293.417 189.748 C 293.291 190.043,293.217 190.654,293.253 191.106 C 293.289 191.558,293.178 191.928,293.007 191.928 C 292.835 191.928,292.768 192.121,292.859 192.356 C 292.949 192.592,292.562 193.915,291.999 195.297 L 290.974 197.809 291.750 198.504 C 292.177 198.887,293.328 199.527,294.307 199.927 C 295.287 200.326,297.762 201.448,299.808 202.419 C 301.854 203.391,303.710 204.185,303.931 204.185 C 304.153 204.185,304.335 204.303,304.335 204.446 C 304.335 204.589,306.185 205.547,308.445 206.575 C 310.706 207.603,313.969 209.087,315.695 209.872 C 317.422 210.658,319.343 211.511,319.966 211.768 C 320.588 212.025,321.304 212.442,321.556 212.694 C 321.808 212.947,322.375 213.229,322.816 213.321 C 323.257 213.413,323.839 213.608,324.110 213.754 C 324.688 214.064,326.596 209.821,327.578 206.040 C 327.887 204.850,328.234 203.969,328.348 204.083 C 328.463 204.198,328.471 203.864,328.366 203.341 C 328.259 202.807,328.301 202.392,328.461 202.392 C 328.617 202.392,328.685 201.981,328.612 201.479 C 328.517 200.834,328.641 200.434,329.037 200.112 C 329.345 199.862,329.428 199.742,329.223 199.846 C 328.958 199.980,328.849 199.724,328.849 198.971 C 328.849 198.386,328.950 197.907,329.073 197.907 C 329.197 197.907,329.297 195.015,329.297 191.480 C 329.297 187.945,329.179 185.052,329.034 185.052 C 328.890 185.052,328.840 184.447,328.923 183.707 C 329.012 182.916,328.953 182.362,328.778 182.362 C 328.615 182.362,328.541 181.958,328.614 181.465 C 328.686 180.972,328.617 180.568,328.461 180.568 C 328.304 180.568,328.257 180.165,328.356 179.671 C 328.467 179.113,328.412 178.774,328.209 178.774 C 328.023 178.774,327.943 178.456,328.024 178.036 C 328.101 177.630,328.050 177.369,327.909 177.456 C 327.768 177.543,327.651 177.303,327.649 176.923 C 327.635 174.696,323.258 164.216,321.493 162.182 C 320.660 161.222,320.843 161.641,322.124 163.626 C 322.371 164.009,322.483 164.413,322.373 164.523 C 322.263 164.633,322.344 164.723,322.553 164.723 C 322.774 164.723,322.859 164.918,322.756 165.187 C 322.658 165.443,322.679 165.589,322.804 165.512 C 322.928 165.435,323.183 165.697,323.370 166.095 C 323.705 166.805,323.690 166.815,322.468 166.700 C 321.246 166.584,318.978 165.765,318.685 165.333 C 318.602 165.212,317.190 164.499,315.546 163.749 C 306.192 159.480,302.619 157.884,302.018 157.707 C 301.648 157.598,301.345 157.399,301.345 157.265 C 301.345 157.132,299.765 156.315,297.833 155.451 C 295.901 154.587,292.907 153.246,291.181 152.471 C 289.454 151.696,287.450 150.811,286.727 150.503 C 286.005 150.196,285.258 149.789,285.069 149.600 C 284.879 149.411,283.520 148.711,282.048 148.046 C 280.576 147.380,277.758 146.104,275.785 145.210 C 273.812 144.316,271.323 143.198,270.254 142.727 C 269.185 142.256,268.165 141.732,267.987 141.563 C 267.643 141.235,266.836 140.858,259.342 137.519 C 251.809 134.161,251.121 133.834,251.121 133.609 C 251.121 133.493,250.658 133.213,250.092 132.987 L 249.064 132.577 250.718 130.391 C 251.627 129.189,252.299 128.134,252.211 128.046 C 252.123 127.958,251.203 129.061,250.166 130.497 M253.409 128.326 C 253.486 128.449,255.685 128.550,258.296 128.550 C 260.907 128.550,263.106 128.449,263.183 128.326 C 263.259 128.203,261.060 128.102,258.296 128.102 C 255.532 128.102,253.333 128.203,253.409 128.326 M310.024 135.512 C 307.809 137.684,306.598 138.975,307.333 138.381 C 308.563 137.386,313.027 133.041,313.900 131.990 C 314.815 130.887,313.773 131.834,310.024 135.512 M299.776 143.071 C 298.637 143.689,298.745 144.064,300.224 144.629 C 301.964 145.294,306.302 147.573,307.848 148.634 C 309.616 149.847,309.445 149.469,307.638 148.171 C 306.016 147.006,302.893 145.381,300.670 144.547 C 299.293 144.030,299.087 143.199,300.336 143.199 C 300.562 143.199,300.747 143.064,300.747 142.900 C 300.747 142.533,300.777 142.527,299.776 143.071 M313.473 153.132 C 315.293 154.877,317.638 157.392,318.684 158.721 C 320.905 161.540,321.334 161.872,319.585 159.417 C 317.749 156.839,314.232 153.102,312.077 151.437 C 310.525 150.238,310.788 150.558,313.473 153.132 " stroke="none" fill="#1b5b46" fill-rule="evenodd"></path><path id="path1" d="M70.446 83.707 C 70.597 115.867,70.799 126.757,71.244 126.755 C 71.440 126.755,73.550 127.646,75.934 128.736 C 78.318 129.827,81.614 131.331,83.259 132.079 C 84.903 132.827,86.315 133.524,86.398 133.628 C 86.480 133.732,88.565 134.731,91.031 135.849 C 101.606 140.642,103.596 141.562,103.737 141.723 C 103.987 142.009,108.004 143.815,108.123 143.695 C 108.185 143.634,108.321 136.434,108.426 127.696 C 108.532 118.958,108.697 111.809,108.793 111.809 C 109.064 111.809,111.495 114.950,119.547 125.710 C 120.901 127.519,122.857 130.075,123.894 131.390 C 124.931 132.706,126.698 135.060,127.820 136.622 C 128.942 138.184,130.418 140.135,131.102 140.957 C 133.354 143.668,136.010 147.463,135.844 147.732 C 135.754 147.878,135.806 147.960,135.959 147.915 C 136.112 147.870,136.819 148.572,137.530 149.477 C 138.241 150.381,138.900 151.188,138.994 151.271 C 139.173 151.428,140.703 153.483,142.888 156.502 C 143.602 157.489,144.568 158.700,145.035 159.193 C 145.501 159.686,146.371 160.661,146.967 161.360 C 147.564 162.059,148.168 162.631,148.309 162.631 C 148.451 162.631,149.545 163.085,150.741 163.641 C 151.937 164.196,153.217 164.743,153.587 164.857 C 153.957 164.970,154.260 165.167,154.260 165.294 C 154.260 165.422,155.303 166.002,156.577 166.583 C 160.400 168.327,167.473 171.485,168.878 172.075 C 169.601 172.378,170.363 172.797,170.571 173.006 C 170.903 173.338,173.892 174.730,182.044 178.352 C 184.885 179.614,184.629 179.835,191.980 169.806 C 193.486 167.750,194.810 166.001,194.922 165.919 C 195.034 165.837,196.642 163.685,198.496 161.136 C 200.349 158.587,202.055 156.300,202.287 156.054 C 203.200 155.081,205.686 151.570,205.462 151.570 C 205.331 151.570,204.418 152.640,203.434 153.949 C 201.746 156.194,201.196 156.717,201.196 156.078 C 201.196 155.926,200.766 155.708,200.240 155.592 C 199.715 155.477,197.528 154.581,195.382 153.602 C 193.236 152.623,190.404 151.334,189.088 150.739 C 187.773 150.143,186.548 149.510,186.367 149.333 C 186.185 149.155,185.445 148.758,184.722 148.452 C 184.000 148.145,181.861 147.190,179.970 146.330 C 178.079 145.469,175.086 144.127,173.318 143.346 C 171.551 142.565,170.105 141.825,170.105 141.702 C 170.105 141.579,169.667 141.309,169.133 141.103 C 168.151 140.724,161.398 137.703,155.904 135.185 C 154.260 134.432,152.737 133.639,152.520 133.425 C 152.302 133.210,152.000 133.034,151.848 133.034 C 151.696 133.034,149.856 132.243,147.759 131.276 C 145.662 130.309,142.265 128.748,140.209 127.808 C 138.154 126.867,136.405 125.989,136.322 125.856 C 136.239 125.723,135.499 125.347,134.678 125.021 C 133.856 124.695,130.493 123.189,127.205 121.676 C 123.916 120.162,120.822 118.769,120.329 118.580 C 119.836 118.391,119.360 118.140,119.271 118.022 C 119.183 117.904,117.669 117.133,115.908 116.309 C 114.147 115.484,112.706 114.665,112.706 114.487 C 112.706 114.310,112.573 114.247,112.410 114.347 C 112.062 114.563,111.574 114.194,109.946 112.488 C 108.703 111.186,108.221 111.093,108.221 112.157 C 108.221 112.532,108.076 112.708,107.848 112.612 C 105.103 111.456,102.361 110.188,102.242 110.019 C 102.160 109.902,100.747 109.190,99.103 108.437 C 89.895 104.218,86.119 102.541,85.827 102.541 C 85.648 102.541,85.501 102.433,85.501 102.300 C 85.501 102.167,84.593 101.632,83.483 101.110 C 78.661 98.843,72.719 96.164,71.824 95.855 L 70.852 95.519 70.817 82.064 C 70.797 74.664,70.681 66.794,70.559 64.574 C 70.437 62.354,70.386 70.964,70.446 83.707 M120.805 63.976 C 120.795 64.223,121.268 64.963,121.856 65.620 L 122.927 66.816 122.045 65.620 C 121.560 64.963,121.087 64.223,120.994 63.976 C 120.843 63.577,120.822 63.577,120.805 63.976 M295.203 68.266 C 294.523 69.015,294.429 69.466,295.084 68.842 C 295.468 68.477,295.722 68.121,295.649 68.050 C 295.575 67.980,295.375 68.077,295.203 68.266 M256.887 82.138 C 256.598 82.590,256.157 83.135,255.908 83.350 C 255.522 83.683,255.543 83.698,256.054 83.451 C 256.383 83.292,256.895 82.747,257.192 82.239 C 257.861 81.095,257.608 81.011,256.887 82.138 M207.303 84.833 C 206.990 85.047,206.491 86.099,206.701 86.099 C 206.760 86.099,207.028 85.762,207.297 85.351 C 207.816 84.559,207.817 84.481,207.303 84.833 M136.622 85.323 C 136.622 85.456,137.160 86.240,137.818 87.067 C 139.231 88.841,139.443 88.688,138.063 86.889 C 136.778 85.213,136.622 85.043,136.622 85.323 M145.760 97.608 C 146.608 98.719,147.010 99.003,146.503 98.132 C 146.017 97.297,145.392 96.562,145.169 96.562 C 145.055 96.562,145.321 97.033,145.760 97.608 M197.514 98.063 C 196.428 99.598,196.635 99.595,197.871 98.057 C 198.400 97.399,198.725 96.864,198.594 96.867 C 198.463 96.871,197.977 97.409,197.514 98.063 M152.282 105.953 C 152.360 106.482,155.840 111.225,156.019 111.046 C 156.091 110.974,155.906 110.646,155.607 110.316 C 155.309 109.986,155.186 109.712,155.335 109.707 C 155.484 109.702,155.367 109.559,155.076 109.390 C 154.785 109.220,154.637 108.934,154.748 108.755 C 154.869 108.559,154.812 108.513,154.605 108.641 C 154.415 108.758,154.260 108.720,154.260 108.556 C 154.260 108.392,153.863 107.823,153.377 107.292 C 152.892 106.760,152.558 106.223,152.635 106.098 C 152.712 105.973,152.650 105.794,152.497 105.699 C 152.345 105.605,152.248 105.719,152.282 105.953 M190.658 107.442 C 190.370 107.660,190.135 107.985,190.135 108.165 C 190.135 108.344,189.915 108.613,189.648 108.763 C 189.380 108.913,189.279 109.106,189.423 109.192 C 189.568 109.279,190.055 108.827,190.505 108.187 C 190.956 107.548,191.292 107.030,191.253 107.035 C 191.213 107.040,190.945 107.223,190.658 107.442 M233.802 113.323 C 233.264 113.992,232.883 114.597,232.954 114.668 C 233.025 114.739,233.518 114.192,234.049 113.452 C 235.253 111.776,235.106 111.700,233.802 113.323 M160.256 117.061 C 160.449 117.293,160.734 117.403,160.891 117.306 C 161.239 117.091,160.980 116.798,160.363 116.707 C 160.003 116.654,159.981 116.729,160.256 117.061 M162.209 119.584 C 162.983 120.569,163.681 121.375,163.760 121.375 C 163.839 121.375,163.546 120.938,163.110 120.404 C 162.674 119.869,162.168 119.137,161.985 118.776 C 161.802 118.415,161.461 118.046,161.227 117.956 C 160.993 117.866,161.435 118.599,162.209 119.584 M180.945 120.703 C 180.417 121.484,179.701 122.526,179.353 123.019 L 178.720 123.916 179.506 123.019 C 180.763 121.585,182.381 119.283,182.132 119.283 C 182.007 119.283,181.472 119.922,180.945 120.703 M320.563 120.496 C 320.369 121.010,320.345 121.442,320.505 121.541 C 320.655 121.634,320.777 121.459,320.777 121.154 C 320.777 120.848,320.924 120.452,321.102 120.273 C 321.282 120.093,321.308 119.874,321.161 119.783 C 321.014 119.693,320.745 120.013,320.563 120.496 M226.059 123.749 C 225.538 124.397,225.112 125.013,225.112 125.118 C 225.112 125.288,225.734 124.574,226.875 123.094 C 227.692 122.034,226.974 122.610,226.059 123.749 M277.055 124.428 C 276.439 124.749,275.934 125.139,275.934 125.294 C 275.934 125.615,277.639 124.795,278.258 124.176 C 278.798 123.637,278.427 123.714,277.055 124.428 M170.279 130.419 C 172.229 133.146,172.364 133.157,174.031 130.735 C 175.171 129.078,174.880 129.050,173.684 130.701 C 172.466 132.382,172.135 132.356,170.707 130.465 C 169.141 128.391,168.803 128.354,170.279 130.419 M218.206 134.305 C 216.441 136.600,216.514 136.467,217.265 136.000 C 217.635 135.770,217.937 135.418,217.937 135.219 C 217.937 135.021,218.173 134.721,218.460 134.553 C 218.748 134.385,218.862 134.244,218.713 134.239 C 218.564 134.234,218.686 133.961,218.984 133.632 C 219.281 133.303,219.448 133.034,219.354 133.034 C 219.260 133.034,218.743 133.606,218.206 134.305 M310.146 135.800 L 309.268 136.771 310.239 135.893 C 311.145 135.075,311.348 134.828,311.117 134.828 C 311.066 134.828,310.629 135.265,310.146 135.800 M245.283 136.547 L 244.757 137.369 245.547 136.644 C 246.402 135.861,246.480 135.725,246.073 135.725 C 245.928 135.725,245.572 136.095,245.283 136.547 M210.865 144.169 C 208.695 147.129,208.791 146.981,209.314 146.560 C 209.835 146.141,212.375 142.601,212.155 142.601 C 212.077 142.601,211.497 143.306,210.865 144.169 M238.409 145.819 C 238.016 146.101,236.991 147.704,237.121 147.834 C 237.175 147.888,237.598 147.405,238.061 146.761 C 238.909 145.582,238.970 145.416,238.409 145.819 M307.175 147.815 C 307.668 148.234,308.206 148.573,308.371 148.569 C 308.714 148.560,307.761 147.780,306.876 147.346 C 306.547 147.185,306.682 147.396,307.175 147.815 M312.737 151.943 C 312.809 151.984,313.605 152.691,314.506 153.513 L 316.143 155.007 314.660 153.438 C 313.844 152.575,313.048 151.868,312.891 151.868 C 312.734 151.868,312.665 151.902,312.737 151.943 M230.568 156.063 C 230.198 156.212,229.895 156.393,229.895 156.466 C 229.895 156.720,230.800 156.464,231.154 156.111 C 231.565 155.699,231.489 155.693,230.568 156.063 M229.832 157.409 C 229.620 157.662,229.308 158.032,229.138 158.232 C 228.388 159.114,227.504 160.508,227.504 160.808 C 227.504 161.036,229.122 161.116,232.810 161.069 L 238.117 161.002 232.960 160.912 C 230.123 160.863,227.803 160.749,227.803 160.658 C 227.803 160.567,228.416 159.696,229.165 158.722 C 230.364 157.163,230.863 156.183,229.832 157.409 M321.108 161.584 C 321.640 162.324,322.196 162.930,322.344 162.930 C 322.492 162.930,322.407 162.723,322.154 162.470 C 321.902 162.218,321.460 161.612,321.172 161.125 C 320.884 160.638,320.534 160.239,320.395 160.239 C 320.256 160.239,320.577 160.845,321.108 161.584 M252.214 160.762 C 252.137 160.886,253.260 160.987,254.709 160.987 C 256.157 160.987,257.280 160.886,257.203 160.762 C 257.127 160.639,256.005 160.538,254.709 160.538 C 253.413 160.538,252.290 160.639,252.214 160.762 M278.924 166.268 C 278.924 166.460,279.012 166.528,279.120 166.420 C 279.229 166.312,279.498 166.373,279.718 166.556 C 279.971 166.766,280.120 166.777,280.120 166.586 C 280.120 166.419,279.907 166.201,279.647 166.101 C 278.997 165.851,278.924 165.868,278.924 166.268 M280.717 167.063 C 280.717 167.221,280.886 167.415,281.092 167.494 C 281.298 167.573,282.274 168.270,283.260 169.043 C 284.966 170.381,284.988 170.389,283.707 169.214 C 281.924 167.577,280.717 166.709,280.717 167.063 M292.388 183.299 C 292.711 184.425,293.144 184.922,292.873 183.857 C 292.769 183.445,292.682 182.941,292.680 182.735 C 292.677 182.530,292.550 182.362,292.398 182.362 C 292.228 182.362,292.224 182.728,292.388 183.299 M292.939 185.716 C 293.077 186.546,293.119 186.588,293.213 185.989 C 293.274 185.601,293.201 185.159,293.050 185.008 C 292.884 184.843,292.841 185.121,292.939 185.716 M329.237 190.284 C 329.236 192.858,329.318 194.022,329.450 193.307 C 329.568 192.668,329.569 190.785,329.452 189.122 L 329.238 186.099 329.237 190.284 M292.996 188.433 C 292.982 189.520,293.087 190.101,293.274 189.985 C 293.632 189.763,293.632 188.129,293.274 187.294 C 293.089 186.865,293.011 187.187,292.996 188.433 M292.901 191.181 C 292.823 191.592,292.874 191.928,293.016 191.928 C 293.158 191.928,293.274 191.592,293.274 191.181 C 293.274 190.770,293.222 190.433,293.159 190.433 C 293.096 190.433,292.980 190.770,292.901 191.181 M292.279 193.751 C 291.574 196.156,288.335 200.971,287.622 200.673 C 287.524 200.632,287.444 200.729,287.444 200.889 C 287.444 201.590,283.576 204.623,283.076 204.314 C 282.861 204.181,282.796 204.220,282.914 204.410 C 283.023 204.587,282.486 205.094,281.689 205.563 C 280.398 206.324,276.294 208.444,275.934 208.536 C 275.852 208.557,275.257 208.809,274.612 209.096 C 273.967 209.383,273.093 209.640,272.669 209.667 C 272.245 209.694,271.816 209.829,271.715 209.966 C 271.614 210.104,271.076 210.239,270.519 210.265 C 269.962 210.292,269.428 210.420,269.333 210.549 C 269.237 210.679,268.330 210.813,267.318 210.848 C 266.305 210.883,265.475 211.008,265.474 211.124 C 265.472 211.241,262.814 211.265,259.567 211.176 C 255.355 211.061,253.791 211.106,254.111 211.332 C 254.440 211.566,254.455 211.651,254.168 211.655 C 253.952 211.657,253.854 211.785,253.949 211.938 C 254.044 212.092,254.556 212.176,255.088 212.126 C 255.619 212.075,255.818 212.093,255.531 212.166 C 254.572 212.409,255.000 212.693,259.128 214.556 C 261.383 215.574,265.014 217.222,267.197 218.218 C 269.379 219.215,271.285 220.030,271.432 220.030 C 271.579 220.030,271.744 220.151,271.799 220.299 C 271.854 220.447,273.580 221.332,275.635 222.266 C 283.522 225.849,288.048 227.951,288.191 228.098 C 288.482 228.396,301.170 234.214,302.987 234.884 C 303.644 235.126,304.338 235.454,304.530 235.613 C 304.759 235.804,304.951 235.788,305.087 235.568 C 305.201 235.384,306.188 234.658,307.281 233.956 C 312.083 230.872,317.148 226.087,320.281 221.674 C 321.449 220.030,322.492 218.617,322.599 218.535 C 323.144 218.117,326.473 210.761,326.445 210.038 C 326.437 209.861,326.019 210.683,325.514 211.865 C 324.756 213.638,324.510 213.968,324.107 213.751 C 323.838 213.607,323.257 213.413,322.816 213.321 C 322.375 213.229,321.808 212.947,321.556 212.694 C 321.304 212.442,320.588 212.025,319.966 211.768 C 319.343 211.511,317.422 210.658,315.695 209.872 C 313.969 209.087,310.706 207.603,308.445 206.575 C 306.185 205.547,304.335 204.589,304.335 204.446 C 304.335 204.303,304.153 204.185,303.931 204.185 C 303.710 204.185,301.854 203.391,299.808 202.419 C 297.762 201.448,295.287 200.326,294.307 199.927 C 293.328 199.527,292.177 198.887,291.750 198.504 L 290.974 197.809 291.995 195.305 C 292.557 193.928,292.960 192.638,292.892 192.439 C 292.824 192.240,292.548 192.831,292.279 193.751 " stroke="none" fill="#2a8d6d" fill-rule="evenodd"></path><path id="path2" d="M70.331 113.453 C 70.321 118.879,70.416 124.058,70.541 124.963 C 70.838 127.111,70.864 109.885,70.569 106.278 C 70.422 104.483,70.343 106.871,70.331 113.453 M70.852 133.483 C 70.852 139.340,70.912 140.209,71.312 140.209 C 71.843 140.209,74.210 141.362,74.454 141.738 C 74.544 141.878,76.629 142.886,79.087 143.978 C 81.546 145.071,85.037 146.634,86.846 147.450 C 88.655 148.267,90.370 149.005,90.658 149.091 C 90.945 149.177,91.181 149.340,91.181 149.454 C 91.181 149.567,92.089 150.082,93.199 150.596 C 96.624 152.185,101.659 154.450,104.618 155.733 C 106.172 156.406,107.543 157.120,107.666 157.319 C 108.181 158.151,108.261 156.761,108.344 145.548 C 108.392 139.077,108.381 136.035,108.319 138.789 C 108.258 141.543,108.158 143.797,108.098 143.797 C 107.890 143.797,103.885 141.893,103.737 141.723 C 103.596 141.562,101.606 140.642,91.031 135.849 C 88.565 134.731,86.480 133.732,86.398 133.628 C 86.315 133.524,84.903 132.827,83.259 132.079 C 81.614 131.331,78.318 129.827,75.934 128.736 C 73.550 127.646,71.431 126.755,71.226 126.755 C 70.938 126.756,70.852 128.302,70.852 133.483 M174.165 129.681 L 173.591 130.493 174.389 129.769 C 175.227 129.007,175.331 128.843,174.963 128.858 C 174.839 128.864,174.480 129.234,174.165 129.681 M125.223 133.561 C 125.378 133.850,125.812 134.355,126.186 134.682 C 126.744 135.169,126.715 135.074,126.029 134.155 C 125.142 132.969,124.753 132.682,125.223 133.561 M217.176 136.129 C 216.496 136.878,216.402 137.329,217.057 136.705 C 217.441 136.339,217.695 135.983,217.622 135.913 C 217.549 135.843,217.348 135.940,217.176 136.129 M132.586 143.199 C 133.345 144.185,134.033 144.993,134.116 144.993 C 134.198 144.993,133.644 144.185,132.885 143.199 C 132.126 142.212,131.437 141.405,131.355 141.405 C 131.273 141.405,131.827 142.212,132.586 143.199 M140.084 153.064 C 140.859 154.051,141.552 154.858,141.624 154.858 C 141.695 154.858,141.468 154.488,141.119 154.036 C 140.769 153.584,140.186 152.778,139.823 152.246 C 139.460 151.714,139.053 151.276,138.919 151.274 C 138.785 151.272,139.309 152.078,140.084 153.064 M145.933 160.762 C 146.626 161.708,147.753 163.154,148.439 163.976 C 149.125 164.798,150.809 167.018,152.181 168.909 C 153.553 170.800,154.995 172.683,155.385 173.094 C 155.774 173.505,156.921 174.985,157.932 176.383 C 158.943 177.780,159.876 178.969,160.005 179.023 C 160.134 179.078,160.243 179.280,160.247 179.472 C 160.252 179.664,160.649 180.207,161.130 180.679 C 161.611 181.151,162.297 181.958,162.654 182.472 C 163.082 183.089,164.030 183.732,165.433 184.356 C 171.247 186.945,175.052 188.726,175.187 188.922 C 176.233 190.446,177.010 189.907,180.568 185.189 C 182.459 182.682,184.128 180.704,184.276 180.795 C 184.425 180.885,184.462 180.822,184.358 180.654 C 184.254 180.486,185.032 179.253,186.087 177.915 C 188.131 175.320,189.545 173.349,189.009 173.842 C 188.830 174.006,187.854 175.217,186.841 176.532 C 184.668 179.352,184.353 179.446,181.500 178.131 C 180.412 177.629,177.593 176.356,175.236 175.302 C 172.879 174.247,170.780 173.214,170.571 173.006 C 170.363 172.797,169.601 172.378,168.878 172.075 C 167.473 171.485,160.400 168.327,156.577 166.583 C 155.303 166.002,154.260 165.422,154.260 165.294 C 154.260 165.167,153.957 164.970,153.587 164.857 C 153.217 164.743,151.937 164.196,150.741 163.641 C 149.545 163.085,148.451 162.631,148.309 162.631 C 148.038 162.631,146.346 160.797,145.599 159.693 C 145.357 159.336,145.050 159.043,144.917 159.043 C 144.784 159.043,145.241 159.817,145.933 160.762 M253.438 161.056 C 254.137 161.119,255.280 161.119,255.979 161.056 C 256.678 160.993,256.106 160.942,254.709 160.942 C 253.311 160.942,252.739 160.993,253.438 161.056 M193.927 167.140 C 193.464 167.784,193.145 168.311,193.219 168.311 C 193.425 168.311,194.992 166.193,194.873 166.074 C 194.816 166.016,194.390 166.496,193.927 167.140 M273.692 209.135 C 272.706 209.517,272.043 209.838,272.219 209.848 C 272.750 209.877,275.323 208.932,275.503 208.642 C 275.595 208.493,275.629 208.386,275.578 208.405 C 275.527 208.424,274.679 208.753,273.692 209.135 M246.786 211.360 C 246.457 211.502,241.278 211.631,235.277 211.647 C 226.977 211.670,224.508 211.759,224.963 212.016 C 225.291 212.203,225.628 212.434,225.710 212.531 C 225.937 212.797,238.974 218.742,241.480 219.722 C 242.014 219.931,242.451 220.202,242.451 220.324 C 242.451 220.446,243.292 220.916,244.320 221.369 C 245.348 221.822,248.274 223.130,250.822 224.277 C 253.371 225.423,256.119 226.652,256.929 227.007 C 257.738 227.362,258.548 227.800,258.728 227.979 C 258.907 228.158,260.195 228.810,261.590 229.427 C 262.984 230.044,265.538 231.197,267.265 231.988 C 268.991 232.779,271.545 233.932,272.939 234.549 C 274.334 235.167,275.622 235.818,275.802 235.997 C 275.981 236.176,276.791 236.613,277.601 236.967 C 278.411 237.321,281.314 238.634,284.053 239.885 C 288.595 241.958,290.882 242.720,290.882 242.161 C 290.882 242.044,291.454 241.782,292.152 241.579 C 295.547 240.594,304.246 236.451,304.416 235.739 C 304.454 235.583,303.879 235.226,303.139 234.947 C 301.084 234.171,288.486 228.399,288.191 228.098 C 288.048 227.951,283.522 225.849,275.635 222.266 C 273.580 221.332,271.854 220.447,271.799 220.299 C 271.744 220.151,271.579 220.030,271.432 220.030 C 271.285 220.030,269.379 219.215,267.197 218.218 C 265.014 217.222,261.383 215.574,259.128 214.556 C 255.000 212.693,254.572 212.409,255.531 212.166 C 255.818 212.093,255.619 212.075,255.088 212.126 C 254.137 212.216,253.465 211.825,254.168 211.590 C 254.396 211.514,254.341 211.398,254.021 211.275 C 253.741 211.168,253.513 211.210,253.513 211.370 C 253.513 211.529,253.244 211.659,252.915 211.659 C 252.586 211.659,252.317 211.525,252.317 211.360 C 252.317 210.994,247.638 210.994,246.786 211.360 M321.724 219.631 C 321.344 220.211,321.110 220.762,321.204 220.856 C 321.298 220.950,321.409 220.970,321.450 220.902 C 322.584 219.012,322.806 217.980,321.724 219.631 M314.818 227.933 C 313.564 229.197,313.106 229.828,313.481 229.773 C 313.794 229.727,314.057 229.500,314.064 229.269 C 314.072 229.038,314.274 228.894,314.513 228.949 C 314.752 229.003,314.844 228.944,314.717 228.817 C 314.590 228.690,315.055 228.007,315.751 227.298 C 316.446 226.589,316.950 226.009,316.870 226.009 C 316.790 226.009,315.866 226.875,314.818 227.933 M311.786 230.708 C 311.387 231.156,311.275 231.359,311.537 231.159 C 311.799 230.960,312.102 230.864,312.210 230.944 C 312.318 231.025,312.340 231.003,312.260 230.894 C 312.179 230.786,312.263 230.517,312.446 230.297 C 313.069 229.545,312.514 229.892,311.786 230.708 M310.471 231.677 C 310.373 231.835,309.155 232.714,307.763 233.630 C 304.872 235.534,304.327 236.143,307.021 234.459 C 308.853 233.314,311.226 231.422,310.855 231.401 C 310.741 231.395,310.568 231.519,310.471 231.677 " stroke="none" fill="#31a07d" fill-rule="evenodd"></path><path id="path3" d="M227.572 58.072 C 225.456 60.908,223.274 63.901,222.722 64.723 C 221.607 66.383,219.103 69.829,217.182 72.347 C 216.493 73.251,215.832 74.296,215.715 74.668 C 215.598 75.040,215.378 75.268,215.225 75.174 C 214.792 74.906,214.897 75.187,215.482 75.861 C 215.777 76.201,216.987 76.912,218.173 77.442 C 219.359 77.972,220.329 78.506,220.329 78.629 C 220.329 78.751,220.766 79.022,221.300 79.230 C 224.179 80.352,236.852 86.157,237.078 86.457 C 237.231 86.659,241.620 88.679,246.434 90.764 C 248.756 91.770,249.925 91.792,249.925 90.830 C 249.925 90.648,250.109 90.350,250.335 90.167 C 250.560 89.985,253.945 85.531,257.858 80.269 C 261.771 75.007,266.673 68.416,268.752 65.620 C 270.831 62.825,273.187 59.596,273.987 58.445 C 274.787 57.294,275.933 55.747,276.534 55.007 C 277.135 54.268,277.724 53.494,277.844 53.288 C 278.018 52.991,273.315 52.915,254.740 52.915 L 231.419 52.915 227.572 58.072 M296.413 67.606 C 293.617 71.232,289.271 76.910,286.754 80.223 C 284.238 83.537,281.671 86.916,281.052 87.732 L 279.925 89.215 281.821 91.469 C 284.976 95.216,287.971 102.225,287.475 104.701 C 287.381 105.173,287.419 105.489,287.560 105.402 C 287.920 105.179,288.172 107.010,287.994 108.562 C 287.883 109.535,287.925 109.752,288.163 109.417 C 288.427 109.045,288.482 109.084,288.486 109.641 C 288.491 110.363,288.941 110.555,289.189 109.940 C 289.272 109.735,289.351 109.870,289.364 110.241 C 289.383 110.784,289.869 111.146,291.854 112.093 C 296.904 114.503,304.248 117.788,304.584 117.788 C 304.776 117.788,304.933 117.895,304.933 118.027 C 304.933 118.428,317.315 124.066,318.195 124.066 C 319.232 124.066,321.870 116.993,322.460 112.631 C 322.566 111.850,322.746 111.211,322.860 111.211 C 322.975 111.211,323.009 110.488,322.935 109.605 C 322.853 108.610,322.929 107.921,323.135 107.794 C 323.575 107.522,323.572 103.837,323.132 103.564 C 322.912 103.428,322.846 102.654,322.941 101.323 C 323.021 100.205,322.977 99.180,322.843 99.046 C 322.709 98.912,322.560 97.762,322.511 96.489 C 322.462 95.217,322.305 94.174,322.163 94.173 C 322.021 94.172,321.964 93.767,322.037 93.274 C 322.109 92.780,322.090 92.377,321.993 92.377 C 321.694 92.377,320.730 87.612,320.956 87.248 C 321.097 87.020,321.036 86.985,320.776 87.146 C 320.485 87.325,320.427 87.225,320.549 86.758 C 320.640 86.411,320.623 86.087,320.513 86.038 C 320.402 85.989,319.797 84.537,319.167 82.810 C 316.252 74.812,310.346 66.743,304.298 62.496 C 301.508 60.536,302.216 60.078,296.413 67.606 M217.320 76.383 C 217.320 76.547,217.123 76.420,216.881 76.101 C 216.640 75.782,216.442 75.689,216.442 75.895 C 216.442 76.100,216.308 76.185,216.143 76.084 C 215.979 75.982,215.845 75.764,215.845 75.600 C 215.845 75.436,215.979 75.384,216.143 75.486 C 216.308 75.587,216.442 75.502,216.442 75.297 C 216.442 75.091,216.640 75.184,216.881 75.503 C 217.123 75.823,217.320 76.218,217.320 76.383 " stroke="none" fill="#050c0a" fill-rule="evenodd"></path><path id="path4" d="M80.643 52.541 C 86.439 52.586,95.923 52.586,101.719 52.541 C 107.515 52.496,102.773 52.458,91.181 52.458 C 79.589 52.458,74.847 52.496,80.643 52.541 M254.543 52.540 C 272.947 52.602,278.201 52.701,278.407 52.991 C 278.601 53.265,278.638 53.245,278.548 52.915 C 278.440 52.521,275.532 52.466,254.684 52.464 L 230.942 52.461 254.543 52.540 M177.692 124.738 C 176.663 126.484,176.596 126.633,177.120 126.009 C 177.728 125.286,178.251 124.365,178.055 124.365 C 177.977 124.365,177.814 124.533,177.692 124.738 M257.926 128.164 C 258.298 128.235,258.836 128.232,259.122 128.158 C 259.407 128.083,259.103 128.024,258.445 128.028 C 257.788 128.031,257.554 128.092,257.926 128.164 M310.449 135.800 L 309.268 137.070 310.538 135.889 C 311.237 135.239,311.809 134.667,311.809 134.618 C 311.809 134.392,311.548 134.618,310.449 135.800 M131.241 141.957 C 131.241 142.096,131.531 142.466,131.885 142.779 L 132.529 143.348 132.000 142.526 C 131.454 141.678,131.241 141.518,131.241 141.957 M108.593 158.894 C 108.552 164.649,108.431 171.263,108.324 173.592 L 108.130 177.828 106.008 176.835 C 104.841 176.289,102.608 175.263,101.046 174.555 C 99.484 173.847,98.058 173.123,97.876 172.947 C 97.695 172.771,96.955 172.376,96.232 172.070 C 95.509 171.764,93.505 170.874,91.779 170.091 C 90.052 169.308,87.059 167.963,85.127 167.100 C 83.195 166.238,81.614 165.434,81.614 165.314 C 81.614 165.193,81.177 164.930,80.643 164.728 C 80.108 164.526,77.692 163.467,75.273 162.375 L 70.875 160.389 70.822 155.157 L 70.769 149.925 70.511 153.064 C 70.369 154.791,70.287 176.517,70.328 201.345 L 70.404 246.487 89.470 246.564 C 104.565 246.625,108.567 246.563,108.680 246.265 C 108.759 246.059,108.788 223.961,108.746 197.160 C 108.703 170.359,108.634 153.139,108.593 158.894 M315.384 154.036 C 316.622 155.356,316.891 155.593,316.891 155.369 C 316.891 155.321,316.252 154.682,315.471 153.949 L 314.051 152.616 315.384 154.036 M143.498 158.010 C 143.498 158.230,145.927 161.435,146.094 161.435 C 146.167 161.435,145.660 160.628,144.968 159.641 C 143.777 157.943,143.498 157.633,143.498 158.010 M227.039 160.564 C 226.557 161.344,227.767 161.440,237.089 161.360 L 246.786 161.277 236.964 161.206 C 228.374 161.145,227.162 161.080,227.313 160.688 C 227.512 160.168,227.334 160.088,227.039 160.564 M260.314 161.347 C 260.684 161.418,261.289 161.418,261.659 161.347 C 262.029 161.276,261.726 161.217,260.987 161.217 C 260.247 161.217,259.944 161.276,260.314 161.347 M154.875 173.164 C 154.850 173.490,158.236 177.877,158.513 177.877 C 158.644 177.877,158.178 177.161,157.477 176.286 C 156.777 175.410,155.908 174.301,155.547 173.819 C 155.186 173.338,154.884 173.043,154.875 173.164 M189.053 174.066 C 187.946 175.943,187.945 175.948,188.736 175.037 C 189.462 174.201,189.716 173.692,189.405 173.692 C 189.332 173.692,189.174 173.860,189.053 174.066 M159.641 179.504 C 159.641 179.596,159.848 179.907,160.100 180.194 C 160.637 180.806,166.824 189.084,167.265 189.779 C 167.802 190.628,168.600 191.439,168.751 191.289 C 168.832 191.208,167.690 189.624,166.213 187.770 C 164.737 185.915,162.782 183.338,161.870 182.043 C 160.344 179.878,159.641 179.078,159.641 179.504 M182.386 183.102 C 181.531 184.339,180.896 185.351,180.975 185.351 C 181.213 185.351,184.211 181.122,184.071 180.982 C 184.000 180.911,183.242 181.864,182.386 183.102 M329.528 187.145 C 329.528 187.885,329.587 188.188,329.658 187.818 C 329.729 187.448,329.729 186.842,329.658 186.472 C 329.587 186.102,329.528 186.405,329.528 187.145 M178.288 188.714 C 176.515 190.938,175.963 191.844,177.165 190.559 C 178.074 189.588,180.088 186.846,179.893 186.846 C 179.830 186.846,179.108 187.687,178.288 188.714 M329.528 195.217 C 329.528 195.957,329.587 196.259,329.658 195.889 C 329.729 195.519,329.729 194.914,329.658 194.544 C 329.587 194.174,329.528 194.477,329.528 195.217 M276.831 207.623 C 276.420 207.858,276.218 208.051,276.383 208.051 C 276.547 208.051,277.018 207.858,277.429 207.623 C 277.840 207.388,278.042 207.196,277.877 207.196 C 277.713 207.196,277.242 207.388,276.831 207.623 M263.154 210.968 C 263.442 211.044,263.913 211.044,264.200 210.968 C 264.488 210.893,264.253 210.832,263.677 210.832 C 263.102 210.832,262.866 210.893,263.154 210.968 M229.148 211.360 C 229.264 211.548,232.384 211.659,237.519 211.659 C 242.653 211.659,245.773 211.548,245.889 211.360 C 246.011 211.164,243.146 211.061,237.519 211.061 C 231.891 211.061,229.026 211.164,229.148 211.360 M189.767 211.734 C 189.502 211.939,188.132 213.789,186.723 215.845 C 185.314 217.900,183.925 219.863,183.635 220.207 C 183.085 220.862,180.162 225.114,177.540 229.073 C 176.696 230.348,175.889 231.390,175.746 231.390 C 175.603 231.390,175.486 231.585,175.486 231.824 C 175.486 232.062,175.318 232.365,175.112 232.496 C 174.907 232.628,173.528 234.544,172.048 236.755 C 170.568 238.966,168.514 241.919,167.484 243.318 C 166.454 244.716,165.658 246.001,165.715 246.174 C 165.787 246.391,182.084 246.511,218.536 246.563 C 247.530 246.604,271.187 246.573,271.107 246.493 C 271.027 246.413,267.607 246.277,263.508 246.189 C 253.597 245.979,250.257 245.428,249.676 243.908 C 249.621 243.765,249.438 243.647,249.269 243.647 C 249.100 243.647,246.723 242.624,243.987 241.373 C 241.252 240.122,237.546 238.429,235.752 237.610 C 233.958 236.791,232.301 235.931,232.069 235.699 C 231.836 235.467,231.523 235.277,231.371 235.277 C 231.108 235.277,228.463 234.098,219.806 230.124 C 217.627 229.124,215.845 228.193,215.845 228.054 C 215.845 227.916,215.638 227.803,215.386 227.803 C 215.134 227.803,214.226 227.446,213.368 227.010 C 211.820 226.224,203.313 222.360,200.448 221.142 C 199.626 220.793,198.881 220.404,198.793 220.279 C 198.655 220.082,197.065 219.336,189.325 215.836 C 187.929 215.204,187.935 215.085,189.482 212.926 L 190.175 211.958 198.227 211.958 C 203.395 211.958,206.278 211.851,206.278 211.659 C 206.278 211.188,190.379 211.259,189.767 211.734 M325.310 213.316 C 324.809 214.416,324.905 214.650,325.446 213.651 C 325.699 213.184,325.850 212.746,325.782 212.678 C 325.714 212.609,325.501 212.897,325.310 213.316 M317.321 225.785 L 316.442 226.756 317.414 225.878 C 318.320 225.060,318.523 224.813,318.292 224.813 C 318.241 224.813,317.803 225.250,317.321 225.785 M308.072 233.957 L 307.175 234.728 308.146 234.085 C 308.681 233.731,309.118 233.384,309.118 233.313 C 309.118 233.089,308.991 233.167,308.072 233.957 M305.680 235.418 C 305.022 235.823,304.686 236.154,304.933 236.153 C 305.179 236.153,305.785 235.821,306.278 235.417 C 307.420 234.480,307.202 234.481,305.680 235.418 M300.747 238.416 C 300.007 238.812,299.508 239.142,299.638 239.149 C 299.956 239.168,302.242 237.993,302.242 237.812 C 302.242 237.614,302.255 237.608,300.747 238.416 M297.459 239.910 C 297.048 240.145,296.846 240.338,297.010 240.338 C 297.175 240.338,297.646 240.145,298.057 239.910 C 298.468 239.675,298.670 239.483,298.505 239.483 C 298.341 239.483,297.870 239.675,297.459 239.910 M293.722 241.416 C 292.974 241.776,292.950 241.817,293.572 241.665 C 294.420 241.458,295.372 240.973,294.918 240.979 C 294.753 240.982,294.215 241.178,293.722 241.416 M288.042 243.207 C 287.384 243.424,287.115 243.601,287.444 243.602 C 287.773 243.602,288.513 243.420,289.088 243.199 C 290.430 242.682,289.615 242.689,288.042 243.207 M285.277 243.858 C 284.907 243.929,284.604 244.113,284.604 244.266 C 284.604 244.629,284.655 244.622,285.840 244.107 C 286.822 243.681,286.632 243.597,285.277 243.858 M283.267 244.531 C 283.169 244.688,282.906 244.746,282.681 244.660 C 282.457 244.574,282.171 244.668,282.047 244.869 C 281.877 245.143,282.068 245.186,282.801 245.039 C 283.340 244.931,283.899 244.843,284.043 244.843 C 284.187 244.843,284.305 244.709,284.305 244.544 C 284.305 244.163,283.500 244.153,283.267 244.531 M280.419 245.142 C 280.419 245.306,280.620 245.441,280.867 245.441 C 281.114 245.441,281.315 245.306,281.315 245.142 C 281.315 244.978,281.114 244.843,280.867 244.843 C 280.620 244.843,280.419 244.978,280.419 245.142 M278.625 245.441 C 278.625 245.605,278.819 245.740,279.056 245.740 C 279.293 245.740,279.570 245.605,279.671 245.441 C 279.773 245.277,279.579 245.142,279.240 245.142 C 278.902 245.142,278.625 245.277,278.625 245.441 M276.233 245.740 C 276.233 245.904,276.577 246.039,276.998 246.039 C 277.432 246.039,277.683 245.909,277.578 245.740 C 277.477 245.575,277.133 245.441,276.813 245.441 C 276.494 245.441,276.233 245.575,276.233 245.740 M272.496 246.039 C 272.382 246.224,272.916 246.336,273.899 246.333 C 275.034 246.330,275.358 246.246,275.037 246.039 C 274.448 245.658,272.732 245.658,272.496 246.039 " stroke="none" fill="#3cc89b" fill-rule="evenodd"></path><path id="path5" d="M108.660 130.792 C 108.661 140.658,108.698 144.650,108.744 139.665 C 108.790 134.679,108.790 126.607,108.744 121.727 C 108.698 116.848,108.660 120.927,108.660 130.792 M70.350 139.013 C 70.357 147.481,70.448 153.401,70.553 152.167 C 70.700 150.443,70.759 151.132,70.810 155.157 L 70.875 160.389 75.273 162.375 C 77.692 163.467,80.108 164.526,80.643 164.728 C 81.177 164.930,81.614 165.193,81.614 165.314 C 81.614 165.434,83.195 166.238,85.127 167.100 C 87.059 167.963,90.052 169.308,91.779 170.091 C 93.505 170.874,95.509 171.764,96.232 172.070 C 96.955 172.376,97.695 172.771,97.876 172.947 C 98.058 173.123,99.484 173.847,101.046 174.555 C 102.608 175.263,104.841 176.289,106.008 176.835 L 108.130 177.828 108.324 173.592 C 108.431 171.263,108.490 165.120,108.455 159.940 C 108.420 154.761,108.349 152.104,108.297 154.036 C 108.243 156.036,108.078 157.549,107.913 157.549 C 107.754 157.549,107.623 157.430,107.623 157.285 C 107.623 157.140,106.446 156.517,105.007 155.901 C 102.366 154.769,96.912 152.319,93.199 150.596 C 92.089 150.082,91.181 149.567,91.181 149.454 C 91.181 149.340,90.945 149.177,90.658 149.091 C 90.370 149.005,88.655 148.267,86.846 147.450 C 85.037 146.634,81.546 145.071,79.087 143.978 C 76.629 142.886,74.544 141.878,74.454 141.738 C 74.210 141.362,71.843 140.209,71.312 140.209 C 70.913 140.209,70.848 139.335,70.822 133.558 C 70.806 129.899,70.691 126.166,70.566 125.262 C 70.441 124.357,70.344 130.546,70.350 139.013 M255.531 128.163 C 255.901 128.234,256.506 128.234,256.876 128.163 C 257.246 128.092,256.943 128.034,256.203 128.034 C 255.463 128.034,255.161 128.092,255.531 128.163 M125.859 134.837 C 125.859 135.007,126.061 135.223,126.308 135.318 C 126.555 135.413,126.756 135.673,126.756 135.896 C 126.756 136.119,127.052 136.460,127.412 136.653 C 127.949 136.940,127.889 136.778,127.088 135.767 C 126.068 134.478,125.859 134.321,125.859 134.837 M132.505 143.609 C 132.784 143.888,133.443 144.716,133.970 145.451 C 134.498 146.185,135.049 146.786,135.194 146.786 C 135.522 146.786,132.798 143.395,132.334 143.225 C 132.150 143.158,132.227 143.331,132.505 143.609 M140.733 154.280 C 141.349 155.113,142.000 156.054,142.179 156.371 C 142.358 156.688,142.585 156.867,142.683 156.769 C 142.846 156.606,140.017 152.765,139.734 152.765 C 139.667 152.765,140.117 153.447,140.733 154.280 M200.141 158.969 L 199.615 159.791 200.405 159.066 C 201.260 158.282,201.338 158.146,200.931 158.146 C 200.786 158.146,200.430 158.516,200.141 158.969 M147.725 163.518 C 148.113 163.841,148.300 164.110,148.140 164.116 C 147.980 164.121,148.150 164.337,148.518 164.594 C 148.887 164.852,149.119 165.175,149.035 165.311 C 148.951 165.446,149.103 165.642,149.372 165.746 C 149.641 165.849,149.779 166.015,149.679 166.115 C 149.579 166.216,149.830 166.560,150.237 166.880 C 150.644 167.200,150.900 167.587,150.806 167.739 C 150.712 167.891,150.844 168.097,151.100 168.195 C 151.357 168.293,151.505 168.472,151.431 168.591 C 151.357 168.711,151.480 168.809,151.705 168.809 C 151.952 168.809,151.632 168.152,150.891 167.140 C 148.915 164.440,147.632 162.930,147.315 162.930 C 147.152 162.930,147.337 163.194,147.725 163.518 M192.839 168.883 C 192.655 169.226,192.630 169.507,192.783 169.507 C 193.090 169.507,193.514 168.601,193.305 168.392 C 193.232 168.319,193.022 168.540,192.839 168.883 M154.858 172.645 C 154.858 172.758,155.125 173.190,155.452 173.605 C 155.778 174.021,155.959 174.513,155.852 174.699 C 155.746 174.885,155.768 174.939,155.900 174.819 C 156.205 174.543,157.857 176.723,157.627 177.096 C 157.533 177.248,157.596 177.285,157.767 177.180 C 157.939 177.074,158.245 177.187,158.448 177.432 C 158.651 177.677,158.700 177.882,158.557 177.887 C 158.413 177.892,158.534 178.034,158.825 178.204 C 159.117 178.373,159.281 178.632,159.191 178.778 C 159.100 178.924,159.299 179.189,159.633 179.368 C 160.041 179.586,160.239 179.591,160.239 179.383 C 160.239 179.213,160.037 179.073,159.791 179.073 C 159.544 179.073,159.376 178.962,159.417 178.826 C 159.458 178.690,158.922 177.764,158.226 176.767 C 156.769 174.683,154.858 172.343,154.858 172.645 M287.207 173.384 C 287.484 173.708,287.771 173.913,287.844 173.840 C 288.022 173.662,287.291 172.795,286.962 172.795 C 286.819 172.795,286.929 173.060,287.207 173.384 M186.365 177.534 C 185.360 178.819,184.721 179.870,184.945 179.870 C 185.168 179.870,185.351 179.748,185.351 179.599 C 185.351 179.449,185.933 178.563,186.644 177.631 C 187.355 176.698,188.035 175.766,188.156 175.561 C 188.666 174.694,188.079 175.340,186.365 177.534 M160.837 180.384 C 160.837 180.508,161.440 181.455,162.177 182.488 C 162.914 183.521,163.452 184.453,163.373 184.559 C 163.294 184.666,163.316 184.689,163.422 184.610 C 163.705 184.399,165.301 186.636,165.100 186.962 C 165.007 187.113,165.066 187.153,165.232 187.051 C 165.701 186.761,167.442 189.100,167.235 189.741 C 167.104 190.144,167.133 190.181,167.346 189.883 C 167.570 189.570,167.780 189.687,168.300 190.418 L 168.967 191.356 172.975 191.313 C 175.413 191.287,177.059 191.146,177.177 190.955 C 177.298 190.759,177.227 190.730,176.988 190.877 C 176.732 191.036,176.650 190.976,176.742 190.699 C 176.819 190.471,177.059 190.284,177.276 190.284 C 177.493 190.284,177.703 190.064,177.743 189.794 C 177.782 189.525,178.477 188.449,179.288 187.403 C 181.101 185.061,182.148 183.558,181.966 183.558 C 181.624 183.558,177.264 189.569,177.421 189.823 C 177.519 189.981,177.224 189.914,176.766 189.675 C 176.309 189.437,175.777 189.241,175.585 189.240 C 175.394 189.238,175.192 189.117,175.137 188.969 C 175.049 188.730,172.886 187.700,165.456 184.356 C 163.762 183.594,163.102 183.089,162.093 181.782 C 161.402 180.888,160.837 180.259,160.837 180.384 M329.528 189.537 C 329.528 190.277,329.587 190.579,329.658 190.209 C 329.729 189.839,329.729 189.234,329.658 188.864 C 329.587 188.494,329.528 188.797,329.528 189.537 M285.557 202.242 C 285.199 202.653,285.017 202.990,285.152 202.990 C 285.286 202.990,285.712 202.653,286.099 202.242 C 286.485 201.831,286.667 201.495,286.504 201.495 C 286.340 201.495,285.914 201.831,285.557 202.242 M284.096 203.394 C 283.964 203.617,283.655 203.875,283.408 203.968 C 283.046 204.105,283.058 204.143,283.472 204.162 C 283.754 204.175,284.129 203.916,284.305 203.587 C 284.660 202.924,284.474 202.753,284.096 203.394 M262.678 211.136 C 262.860 211.433,265.172 211.426,265.172 211.128 C 265.172 211.000,264.580 210.900,263.856 210.904 C 263.133 210.908,262.603 211.013,262.678 211.136 M214.425 211.285 C 209.339 211.338,206.278 211.480,206.278 211.664 C 206.278 211.850,203.307 211.958,198.227 211.958 L 190.175 211.958 189.482 212.926 C 187.935 215.085,187.929 215.204,189.325 215.836 C 197.065 219.336,198.655 220.082,198.793 220.279 C 198.881 220.404,199.626 220.793,200.448 221.142 C 203.313 222.360,211.820 226.224,213.368 227.010 C 214.226 227.446,215.134 227.803,215.386 227.803 C 215.638 227.803,215.845 227.916,215.845 228.054 C 215.845 228.193,217.627 229.124,219.806 230.124 C 228.463 234.098,231.108 235.277,231.371 235.277 C 231.523 235.277,231.836 235.467,232.069 235.699 C 232.301 235.931,233.958 236.791,235.752 237.610 C 237.546 238.429,241.252 240.122,243.987 241.373 C 246.723 242.624,249.111 243.647,249.294 243.647 C 249.477 243.647,249.626 243.757,249.626 243.891 C 249.626 244.283,252.953 245.701,254.260 245.867 C 257.175 246.238,272.295 246.364,272.508 246.020 C 272.656 245.780,273.272 245.734,274.478 245.870 C 275.630 246.000,276.233 245.961,276.233 245.755 C 276.233 245.346,277.218 245.349,277.628 245.759 C 277.853 245.984,278.083 245.940,278.413 245.610 C 278.923 245.101,279.970 244.957,279.673 245.438 C 279.569 245.607,279.689 245.657,279.955 245.555 C 280.210 245.457,280.419 245.257,280.419 245.110 C 280.419 244.963,280.620 244.843,280.867 244.843 C 281.114 244.843,281.315 244.998,281.315 245.188 C 281.315 245.392,281.546 245.325,281.876 245.026 C 282.184 244.747,282.554 244.546,282.698 244.579 C 282.842 244.612,283.209 244.531,283.513 244.399 C 283.878 244.240,284.156 244.300,284.331 244.575 C 284.550 244.922,284.596 244.915,284.599 244.535 C 284.603 244.207,285.413 243.874,287.459 243.360 C 290.305 242.646,291.198 242.227,289.877 242.227 C 289.495 242.227,286.907 241.189,284.127 239.919 C 281.348 238.650,278.411 237.321,277.601 236.967 C 276.791 236.613,275.981 236.176,275.802 235.997 C 275.622 235.818,274.334 235.167,272.939 234.549 C 271.545 233.932,268.991 232.779,267.265 231.988 C 265.538 231.197,262.984 230.044,261.590 229.427 C 260.195 228.810,258.907 228.158,258.728 227.979 C 258.548 227.800,257.738 227.362,256.929 227.007 C 256.119 226.652,253.371 225.423,250.822 224.277 C 248.274 223.130,245.348 221.822,244.320 221.369 C 243.292 220.916,242.451 220.446,242.451 220.324 C 242.451 220.202,242.014 219.931,241.480 219.722 C 238.974 218.742,225.937 212.797,225.710 212.531 C 225.628 212.434,225.291 212.203,224.963 212.016 C 224.477 211.741,224.844 211.669,226.906 211.631 C 229.175 211.589,229.303 211.559,228.102 211.345 C 227.362 211.213,225.815 211.127,224.664 211.153 C 223.513 211.179,218.905 211.239,214.425 211.285 M245.889 211.360 C 245.671 211.714,245.963 211.714,246.786 211.360 C 247.363 211.113,247.361 211.103,246.729 211.082 C 246.369 211.071,245.991 211.196,245.889 211.360 M252.317 211.360 C 252.317 211.525,252.586 211.659,252.915 211.659 C 253.244 211.659,253.513 211.525,253.513 211.360 C 253.513 211.196,253.244 211.061,252.915 211.061 C 252.586 211.061,252.317 211.196,252.317 211.360 M314.788 228.285 C 313.889 229.207,313.423 229.790,313.752 229.580 C 314.346 229.199,316.783 226.607,316.546 226.607 C 316.478 226.607,315.687 227.362,314.788 228.285 M304.335 236.156 C 304.335 236.330,304.183 236.439,303.999 236.398 C 303.814 236.357,303.601 236.525,303.527 236.771 C 303.420 237.127,303.450 237.137,303.673 236.821 C 303.827 236.601,304.042 236.443,304.152 236.469 C 304.643 236.588,305.050 236.281,304.694 236.061 C 304.496 235.939,304.335 235.982,304.335 236.156 M301.755 237.484 C 300.188 238.380,293.826 241.093,292.152 241.579 C 291.340 241.815,290.884 242.120,290.886 242.424 C 290.889 242.714,290.977 242.777,291.111 242.585 C 291.232 242.411,292.541 241.821,294.021 241.273 C 297.485 239.990,303.139 237.357,303.139 237.026 C 303.139 236.686,303.166 236.677,301.755 237.484 " stroke="none" fill="#34ac84" fill-rule="evenodd"></path><path id="path6" d="M231.053 53.139 C 230.690 53.602,230.697 53.620,231.120 53.290 C 231.488 53.003,236.869 52.901,254.886 52.840 L 278.176 52.762 254.820 52.689 C 232.881 52.620,231.438 52.648,231.053 53.139 M85.501 53.204 C 81.188 53.322,77.730 53.812,81.212 53.812 C 81.457 53.812,81.845 53.980,82.074 54.185 C 82.303 54.391,82.706 54.741,82.970 54.964 C 83.234 55.187,84.685 55.903,86.195 56.555 C 87.704 57.206,90.419 58.416,92.227 59.243 C 94.036 60.070,96.592 61.238,97.907 61.838 C 99.223 62.439,100.375 63.031,100.467 63.156 C 100.560 63.280,102.107 64.035,103.905 64.833 C 113.360 69.031,116.639 70.557,117.019 70.937 C 117.249 71.168,117.887 71.527,118.435 71.735 C 118.983 71.943,121.343 72.985,123.679 74.050 C 126.014 75.115,128.054 75.906,128.212 75.809 C 128.370 75.711,128.567 75.801,128.650 76.007 C 128.742 76.234,128.811 76.175,128.825 75.859 C 128.838 75.572,128.714 75.336,128.550 75.336 C 128.386 75.336,128.251 75.206,128.251 75.047 C 128.251 74.888,126.664 72.634,124.724 70.039 C 122.784 67.444,120.707 64.581,120.108 63.677 C 119.510 62.773,118.440 61.338,117.731 60.489 C 117.022 59.641,115.434 57.589,114.202 55.930 L 111.962 52.915 101.646 52.980 C 95.973 53.015,88.707 53.116,85.501 53.204 M275.442 56.428 C 274.990 57.044,274.411 57.807,274.156 58.123 C 273.901 58.439,273.848 58.607,274.038 58.496 C 274.418 58.275,276.613 55.306,276.397 55.306 C 276.324 55.306,275.894 55.811,275.442 56.428 M227.772 57.474 C 226.265 59.433,226.225 59.492,226.385 59.492 C 226.467 59.492,227.094 58.752,227.776 57.848 C 228.459 56.943,228.958 56.203,228.884 56.203 C 228.810 56.203,228.310 56.775,227.772 57.474 M300.149 62.481 C 299.629 63.139,299.270 63.677,299.352 63.677 C 299.434 63.677,299.928 63.139,300.448 62.481 C 300.969 61.824,301.328 61.286,301.246 61.286 C 301.164 61.286,300.670 61.824,300.149 62.481 M220.574 67.339 C 217.186 71.841,215.169 74.687,215.227 74.886 C 215.260 74.999,215.042 75.277,214.743 75.504 C 214.445 75.730,214.295 75.919,214.410 75.925 C 214.526 75.930,214.277 76.304,213.857 76.756 C 213.436 77.209,211.868 79.260,210.372 81.315 C 208.875 83.371,205.954 87.339,203.881 90.135 C 201.807 92.930,199.656 95.889,199.099 96.712 C 198.543 97.534,197.198 99.417,196.111 100.897 C 195.025 102.377,193.874 104.058,193.555 104.634 C 193.236 105.209,192.840 105.779,192.676 105.900 C 192.507 106.024,192.604 106.121,192.900 106.124 C 193.188 106.126,193.423 106.243,193.423 106.383 C 193.423 106.524,195.004 107.352,196.936 108.224 C 198.868 109.095,200.516 109.899,200.598 110.008 C 200.680 110.118,202.093 110.820,203.737 111.568 C 208.490 113.731,215.282 116.766,216.667 117.346 C 217.365 117.639,217.937 117.976,217.937 118.094 C 217.937 118.429,224.811 121.412,225.129 121.215 C 225.284 121.119,225.411 121.171,225.411 121.330 C 225.411 121.488,225.665 121.552,225.975 121.471 C 226.286 121.389,226.631 121.471,226.742 121.651 C 226.952 121.991,227.564 121.242,232.586 114.487 C 234.148 112.387,236.379 109.411,237.543 107.875 C 239.623 105.130,250.655 90.332,253.196 86.878 C 253.909 85.908,254.353 85.202,254.183 85.307 C 254.012 85.412,253.098 86.575,252.150 87.891 C 251.202 89.207,250.314 90.284,250.176 90.284 C 250.038 90.284,249.925 90.481,249.925 90.722 C 249.925 91.791,248.836 91.804,246.434 90.764 C 241.620 88.679,237.231 86.659,237.078 86.457 C 236.852 86.157,224.179 80.352,221.300 79.230 C 220.766 79.022,220.329 78.751,220.329 78.629 C 220.329 78.506,219.371 77.977,218.200 77.454 C 214.757 75.914,214.710 75.674,217.204 72.347 C 217.882 71.442,219.221 69.626,220.180 68.311 C 221.139 66.996,222.052 65.751,222.209 65.546 C 222.366 65.340,222.430 65.172,222.350 65.172 C 222.271 65.172,221.471 66.147,220.574 67.339 M307.922 65.265 C 307.922 65.317,308.359 65.754,308.894 66.237 L 309.865 67.115 308.987 66.143 C 308.169 65.238,307.922 65.034,307.922 65.265 M291.894 73.155 C 291.261 73.928,290.898 74.465,291.089 74.347 C 291.496 74.095,293.389 71.749,293.185 71.749 C 293.109 71.749,292.528 72.382,291.894 73.155 M259.940 77.429 C 258.695 79.073,257.743 80.419,257.826 80.419 C 257.908 80.419,258.994 79.073,260.239 77.429 C 261.484 75.785,262.436 74.439,262.354 74.439 C 262.271 74.439,261.185 75.785,259.940 77.429 M315.546 75.336 C 315.801 75.830,316.077 76.233,316.159 76.233 C 316.241 76.233,316.100 75.830,315.845 75.336 C 315.589 74.843,315.313 74.439,315.231 74.439 C 315.149 74.439,315.291 74.843,315.546 75.336 M216.442 75.297 C 216.442 75.502,216.308 75.587,216.143 75.486 C 215.979 75.384,215.845 75.436,215.845 75.600 C 215.845 75.764,215.979 75.982,216.143 76.084 C 216.308 76.185,216.442 76.100,216.442 75.895 C 216.442 75.689,216.640 75.782,216.881 76.101 C 217.123 76.420,217.320 76.547,217.320 76.383 C 217.320 76.218,217.123 75.823,216.881 75.503 C 216.640 75.184,216.442 75.091,216.442 75.297 M284.861 82.436 C 284.001 83.475,283.637 84.006,283.784 84.006 C 283.867 84.006,284.294 83.535,284.733 82.960 C 285.548 81.892,285.646 81.489,284.861 82.436 M282.511 85.501 C 281.990 86.158,281.631 86.697,281.714 86.697 C 281.796 86.697,282.289 86.158,282.810 85.501 C 283.331 84.843,283.690 84.305,283.608 84.305 C 283.526 84.305,283.032 84.843,282.511 85.501 M280.419 88.191 C 280.067 88.685,279.847 89.088,279.929 89.088 C 280.012 89.088,280.366 88.685,280.717 88.191 C 281.069 87.698,281.289 87.294,281.207 87.294 C 281.124 87.294,280.770 87.698,280.419 88.191 M279.821 89.481 C 279.821 89.532,280.258 89.969,280.792 90.452 L 281.764 91.330 280.886 90.359 C 280.067 89.453,279.821 89.250,279.821 89.481 M282.437 92.526 C 282.920 93.184,283.685 94.361,284.138 95.142 C 284.590 95.923,285.022 96.562,285.098 96.562 C 285.390 96.562,283.510 93.520,282.558 92.452 L 281.558 91.330 282.437 92.526 M322.507 96.861 C 322.580 97.354,322.691 97.758,322.754 97.758 C 322.818 97.758,322.870 97.354,322.870 96.861 C 322.870 96.368,322.759 95.964,322.623 95.964 C 322.487 95.964,322.435 96.368,322.507 96.861 M322.905 101.701 C 322.886 102.637,322.971 103.465,323.094 103.541 C 323.217 103.617,323.278 103.054,323.229 102.288 C 323.089 100.105,322.943 99.840,322.905 101.701 M287.453 105.618 C 287.325 105.913,287.304 106.238,287.407 106.341 C 287.711 106.644,287.955 106.218,287.816 105.629 C 287.692 105.107,287.676 105.106,287.453 105.618 M322.990 108.040 C 322.902 108.270,322.876 108.976,322.932 109.610 C 323.027 110.678,323.045 110.647,323.176 109.193 C 323.321 107.590,323.274 107.300,322.990 108.040 M287.435 110.049 C 287.440 111.193,287.309 112.225,287.145 112.343 C 286.981 112.460,286.818 112.946,286.784 113.422 C 286.381 119.029,279.571 125.011,271.447 126.897 C 269.558 127.335,267.597 127.820,267.091 127.974 C 266.584 128.128,265.559 128.170,264.813 128.068 C 263.946 127.949,263.383 128.002,263.250 128.216 C 262.950 128.702,253.997 128.671,253.212 128.181 C 252.712 127.868,252.556 127.903,252.196 128.405 C 251.963 128.731,251.165 129.804,250.422 130.790 L 249.073 132.581 250.097 132.989 C 250.660 133.214,251.121 133.493,251.121 133.609 C 251.121 133.834,251.809 134.161,259.342 137.519 C 266.836 140.858,267.643 141.235,267.987 141.563 C 268.165 141.732,269.185 142.256,270.254 142.727 C 271.323 143.198,273.812 144.316,275.785 145.210 C 277.758 146.104,280.576 147.380,282.048 148.046 C 283.520 148.711,284.879 149.411,285.069 149.600 C 285.258 149.789,286.005 150.196,286.727 150.503 C 287.450 150.811,289.454 151.696,291.181 152.471 C 292.907 153.246,295.901 154.587,297.833 155.451 C 299.765 156.315,301.345 157.132,301.345 157.265 C 301.345 157.399,301.648 157.598,302.018 157.707 C 302.619 157.884,306.192 159.480,315.546 163.749 C 317.190 164.499,318.602 165.212,318.685 165.333 C 318.978 165.765,321.246 166.584,322.468 166.700 C 323.690 166.815,323.705 166.805,323.370 166.095 C 323.183 165.697,322.928 165.435,322.804 165.512 C 322.679 165.589,322.658 165.443,322.756 165.187 C 322.854 164.932,322.778 164.723,322.585 164.723 C 322.394 164.723,322.305 164.613,322.388 164.478 C 322.472 164.343,321.929 163.300,321.181 162.161 C 316.081 154.388,307.942 147.579,300.224 144.629 C 298.518 143.977,298.609 143.713,300.972 142.462 C 307.466 139.021,315.702 130.554,319.112 123.812 C 319.557 122.932,319.856 122.148,319.777 122.069 C 319.697 121.989,319.404 122.406,319.125 122.995 C 318.845 123.584,318.423 124.066,318.187 124.066 C 317.313 124.066,304.933 118.425,304.933 118.027 C 304.933 117.895,304.776 117.788,304.584 117.788 C 304.248 117.788,296.904 114.503,291.854 112.093 C 289.869 111.146,289.383 110.784,289.364 110.241 C 289.351 109.870,289.272 109.735,289.189 109.940 C 288.941 110.555,288.491 110.363,288.486 109.641 C 288.482 109.097,288.426 109.054,288.191 109.417 C 287.965 109.768,287.901 109.690,287.897 109.061 C 287.894 108.619,287.788 108.192,287.660 108.113 C 287.532 108.034,287.431 108.905,287.435 110.049 " stroke="none" fill="#0c241c" fill-rule="evenodd"></path></g></svg>