<svg data-v-fde0c5aa="" xmlns="http://www.w3.org/2000/svg" viewBox="0 0 300 300" class="iconAbove"><!----><defs data-v-fde0c5aa=""><!----></defs><rect data-v-fde0c5aa="" fill="#39DAA2" x="0" y="0" width="300px" height="300px" class="logo-background-square"></rect><defs data-v-fde0c5aa=""><!----></defs><g data-v-fde0c5aa="" id="a0063f97-6a9b-4011-ae3c-3170413f3384" fill="#FFFFFF" transform="matrix(3.883495322651041,0,0,3.883495322651041,16.504854070729447,164.0291248873254)"><path d="M7.12 11.36L7.12 11.36L8.31 11.54L8.31 11.54Q8.28 12.20 8.20 12.66L8.20 12.66L8.20 12.66Q8.11 13.12 7.95 13.48L7.95 13.48L7.95 13.48Q7.79 13.84 7.56 14.06L7.56 14.06L7.56 14.06Q7.33 14.29 6.96 14.43L6.96 14.43L6.96 14.43Q6.60 14.57 6.14 14.63L6.14 14.63L6.14 14.63Q5.69 14.68 5.04 14.68L5.04 14.68L5.04 14.68Q4.43 14.68 3.94 14.65L3.94 14.65L3.94 14.65Q3.46 14.62 3.06 14.52L3.06 14.52L3.06 14.52Q2.66 14.41 2.36 14.31L2.36 14.31L2.36 14.31Q2.06 14.21 1.84 13.98L1.84 13.98L1.84 13.98Q1.61 13.75 1.45 13.56L1.45 13.56L1.45 13.56Q1.30 13.38 1.19 13.00L1.19 13.00L1.19 13.00Q1.09 12.62 1.03 12.33L1.03 12.33L1.03 12.33Q0.98 12.04 0.95 11.50L0.95 11.50L0.95 11.50Q0.92 10.95 0.91 10.54L0.91 10.54L0.91 10.54Q0.90 10.13 0.90 9.41L0.90 9.41L0.90 9.41Q0.90 8.64 0.91 8.18L0.91 8.18L0.91 8.18Q0.92 7.71 0.95 7.16L0.95 7.16L0.95 7.16Q0.98 6.62 1.04 6.32L1.04 6.32L1.04 6.32Q1.09 6.02 1.20 5.66L1.20 5.66L1.20 5.66Q1.31 5.30 1.46 5.12L1.46 5.12L1.46 5.12Q1.60 4.95 1.83 4.74L1.83 4.74L1.83 4.74Q2.06 4.54 2.34 4.46L2.34 4.46L2.34 4.46Q2.62 4.38 3.01 4.30L3.01 4.30L3.01 4.30Q3.41 4.22 3.87 4.20L3.87 4.20L3.87 4.20Q4.32 4.18 4.92 4.18L4.92 4.18L4.92 4.18Q5.54 4.18 5.98 4.22L5.98 4.22L5.98 4.22Q6.42 4.27 6.80 4.39L6.80 4.39L6.80 4.39Q7.18 4.52 7.43 4.73L7.43 4.73L7.43 4.73Q7.68 4.94 7.86 5.27L7.86 5.27L7.86 5.27Q8.05 5.61 8.16 6.06L8.16 6.06L8.16 6.06Q8.26 6.51 8.31 7.15L8.31 7.15L7.11 7.38L7.11 7.38Q7.08 7.03 7.05 6.80L7.05 6.80L7.05 6.80Q7.02 6.57 6.97 6.34L6.97 6.34L6.97 6.34Q6.92 6.12 6.89 5.98L6.89 5.98L6.89 5.98Q6.86 5.84 6.76 5.70L6.76 5.70L6.76 5.70Q6.67 5.57 6.61 5.50L6.61 5.50L6.61 5.50Q6.55 5.43 6.39 5.37L6.39 5.37L6.39 5.37Q6.23 5.31 6.13 5.29L6.13 5.29L6.13 5.29Q6.02 5.26 5.78 5.24L5.78 5.24L5.78 5.24Q5.54 5.22 5.36 5.22L5.36 5.22L5.36 5.22Q5.18 5.22 4.84 5.22L4.84 5.22L4.84 5.22Q4.36 5.22 4.06 5.23L4.06 5.23L4.06 5.23Q3.75 5.24 3.45 5.28L3.45 5.28L3.45 5.28Q3.14 5.32 2.97 5.39L2.97 5.39L2.97 5.39Q2.80 5.46 2.65 5.58L2.65 5.58L2.65 5.58Q2.50 5.70 2.43 5.88L2.43 5.88L2.43 5.88Q2.37 6.05 2.35 6.30L2.35 6.30L2.35 6.30Q2.29 8.10 2.29 9.98L2.29 9.98L2.29 9.98Q2.29 11.29 2.35 12.54L2.35 12.54L2.35 12.54Q2.39 12.93 2.57 13.15L2.57 13.15L2.57 13.15Q2.76 13.37 3.31 13.50L3.31 13.50L3.31 13.50Q3.85 13.63 4.85 13.63L4.85 13.63L4.85 13.63Q5.38 13.63 5.74 13.60L5.74 13.60L5.74 13.60Q6.10 13.57 6.35 13.46L6.35 13.46L6.35 13.46Q6.60 13.34 6.73 13.25L6.73 13.25L6.73 13.25Q6.86 13.16 6.94 12.89L6.94 12.89L6.94 12.89Q7.01 12.63 7.04 12.44L7.04 12.44L7.04 12.44Q7.06 12.26 7.09 11.83L7.09 11.83L7.09 11.83Q7.10 11.73 7.10 11.68L7.10 11.68L7.10 11.68Q7.10 11.62 7.11 11.53L7.11 11.53L7.11 11.53Q7.12 11.44 7.12 11.36ZM13.06 13.68L13.06 13.68L13.06 13.68Q14.03 13.66 14.41 13.54L14.41 13.54L14.41 13.54Q14.79 13.41 14.79 13.05L14.79 13.05L14.79 13.05Q14.86 12.07 14.86 10.79L14.86 10.79L14.86 10.79Q14.86 10.36 14.83 9.57L14.83 9.57L14.83 9.57Q14.79 8.78 14.79 8.40L14.79 8.40L14.79 8.40Q14.79 8.29 14.76 8.19L14.76 8.19L14.76 8.19Q14.72 8.09 14.63 8.03L14.63 8.03L14.63 8.03Q14.55 7.96 14.46 7.92L14.46 7.92L14.46 7.92Q14.38 7.87 14.22 7.84L14.22 7.84L14.22 7.84Q14.07 7.81 13.96 7.79L13.96 7.79L13.96 7.79Q13.86 7.77 13.66 7.77L13.66 7.77L13.66 7.77Q13.47 7.76 13.36 7.76L13.36 7.76L13.36 7.76Q13.25 7.76 13.05 7.76L13.05 7.76L13.05 7.76Q12.84 7.76 12.74 7.76L12.74 7.76L12.74 7.76Q12.63 7.76 12.44 7.77L12.44 7.77L12.44 7.77Q12.24 7.77 12.14 7.79L12.14 7.79L12.14 7.79Q12.03 7.81 11.88 7.84L11.88 7.84L11.88 7.84Q11.72 7.87 11.64 7.92L11.64 7.92L11.64 7.92Q11.55 7.96 11.47 8.03L11.47 8.03L11.47 8.03Q11.38 8.09 11.34 8.19L11.34 8.19L11.34 8.19Q11.31 8.29 11.31 8.40L11.31 8.40L11.31 8.40Q11.31 8.78 11.27 9.57L11.27 9.57L11.27 9.57Q11.24 10.36 11.24 10.79L11.24 10.79L11.24 10.79Q11.24 12.07 11.31 13.05L11.31 13.05L11.31 13.05Q11.31 13.41 11.71 13.55L11.71 13.55L11.71 13.55Q12.11 13.68 13.06 13.68ZM13.04 14.62L13.04 14.62L13.04 14.62Q12.28 14.62 11.78 14.56L11.78 14.56L11.78 14.56Q11.27 14.50 10.91 14.29L10.91 14.29L10.91 14.29Q10.54 14.08 10.35 13.85L10.35 13.85L10.35 13.85Q10.16 13.61 10.05 13.10L10.05 13.10L10.05 13.10Q9.94 12.59 9.92 12.09L9.92 12.09L9.92 12.09Q9.89 11.59 9.89 10.71L9.89 10.71L9.89 10.71Q9.89 10.04 9.91 9.60L9.91 9.60L9.91 9.60Q9.93 9.15 9.99 8.73L9.99 8.73L9.99 8.73Q10.05 8.30 10.14 8.04L10.14 8.04L10.14 8.04Q10.23 7.77 10.41 7.54L10.41 7.54L10.41 7.54Q10.58 7.30 10.80 7.18L10.80 7.18L10.80 7.18Q11.02 7.05 11.36 6.96L11.36 6.96L11.36 6.96Q11.70 6.87 12.10 6.84L12.10 6.84L12.10 6.84Q12.50 6.81 13.05 6.81L13.05 6.81L13.05 6.81Q13.60 6.81 14.00 6.84L14.00 6.84L14.00 6.84Q14.40 6.87 14.74 6.96L14.74 6.96L14.74 6.96Q15.08 7.05 15.30 7.18L15.30 7.18L15.30 7.18Q15.52 7.30 15.69 7.54L15.69 7.54L15.69 7.54Q15.87 7.77 15.96 8.04L15.96 8.04L15.96 8.04Q16.05 8.30 16.11 8.73L16.11 8.73L16.11 8.73Q16.17 9.15 16.19 9.60L16.19 9.60L16.19 9.60Q16.21 10.04 16.21 10.71L16.21 10.71L16.21 10.71Q16.21 11.59 16.18 12.09L16.18 12.09L16.18 12.09Q16.16 12.59 16.05 13.10L16.05 13.10L16.05 13.10Q15.94 13.61 15.75 13.85L15.75 13.85L15.75 13.85Q15.55 14.09 15.19 14.29L15.19 14.29L15.19 14.29Q14.82 14.50 14.31 14.56L14.31 14.56L14.31 14.56Q13.81 14.62 13.04 14.62ZM24.06 4.03L24.06 14.52L22.83 14.52L22.70 13.58L22.70 13.58Q22.29 14.62 20.52 14.62L20.52 14.62L20.52 14.62Q20.05 14.62 19.68 14.56L19.68 14.56L19.68 14.56Q19.30 14.50 19.03 14.35L19.03 14.35L19.03 14.35Q18.76 14.20 18.57 14.04L18.57 14.04L18.57 14.04Q18.38 13.88 18.26 13.57L18.26 13.57L18.26 13.57Q18.13 13.27 18.06 13.02L18.06 13.02L18.06 13.02Q17.99 12.77 17.95 12.33L17.95 12.33L17.95 12.33Q17.92 11.88 17.91 11.55L17.91 11.55L17.91 11.55Q17.90 11.22 17.90 10.65L17.90 10.65L17.90 10.65Q17.90 10.10 17.92 9.69L17.92 9.69L17.92 9.69Q17.94 9.29 17.99 8.89L17.99 8.89L17.99 8.89Q18.04 8.50 18.13 8.23L18.13 8.23L18.13 8.23Q18.21 7.96 18.35 7.70L18.35 7.70L18.35 7.70Q18.50 7.45 18.70 7.30L18.70 7.30L18.70 7.30Q18.90 7.14 19.18 7.02L19.18 7.02L19.18 7.02Q19.46 6.90 19.82 6.86L19.82 6.86L19.82 6.86Q20.19 6.81 20.64 6.81L20.64 6.81L20.64 6.81Q21.53 6.81 22.02 7.04L22.02 7.04L22.02 7.04Q22.50 7.28 22.72 7.79L22.72 7.79L22.72 4.14L24.06 4.03ZM22.72 12.78L22.72 12.78L22.72 8.79L22.72 8.79Q22.72 8.20 22.35 7.97L22.35 7.97L22.35 7.97Q21.98 7.75 20.96 7.75L20.96 7.75L20.96 7.75Q20.17 7.75 19.78 7.87L19.78 7.87L19.78 7.87Q19.47 7.96 19.36 8.43L19.36 8.43L19.36 8.43Q19.25 8.90 19.25 9.69L19.25 9.69L19.25 9.69Q19.25 10.85 19.29 12.93L19.29 12.93L19.29 12.93Q19.33 13.38 19.66 13.53L19.66 13.53L19.66 13.53Q19.99 13.69 20.96 13.69L20.96 13.69L20.96 13.69Q21.92 13.69 22.30 13.49L22.30 13.49L22.30 13.49Q22.67 13.30 22.72 12.78ZM31.94 10.66L31.94 10.66L31.94 10.66Q31.12 10.75 30.93 10.76L30.93 10.76L27.20 10.76L27.20 10.76Q27.21 11.75 27.25 12.93L27.25 12.93L27.25 12.93Q27.29 13.39 27.65 13.54L27.65 13.54L27.65 13.54Q28.01 13.69 29.05 13.69L29.05 13.69L29.05 13.69Q29.44 13.69 29.72 13.65L29.72 13.65L29.72 13.65Q30.00 13.62 30.17 13.55L30.17 13.55L30.17 13.55Q30.34 13.47 30.44 13.40L30.44 13.40L30.44 13.40Q30.54 13.32 30.59 13.17L30.59 13.17L30.59 13.17Q30.64 13.02 30.65 12.91L30.65 12.91L30.65 12.91Q30.67 12.80 30.68 12.59L30.68 12.59L30.68 12.59Q30.69 12.37 30.71 12.24L30.71 12.24L31.76 12.43L31.76 12.43Q31.75 12.91 31.69 13.24L31.69 13.24L31.69 13.24Q31.64 13.57 31.51 13.82L31.51 13.82L31.51 13.82Q31.38 14.08 31.20 14.22L31.20 14.22L31.20 14.22Q31.02 14.37 30.72 14.46L30.72 14.46L30.72 14.46Q30.42 14.56 30.06 14.59L30.06 14.59L30.06 14.59Q29.70 14.62 29.16 14.62L29.16 14.62L29.16 14.62Q28.48 14.62 27.97 14.54L27.97 14.54L27.97 14.54Q27.47 14.46 27.11 14.35L27.11 14.35L27.11 14.35Q26.75 14.23 26.52 13.97L26.52 13.97L26.52 13.97Q26.28 13.71 26.15 13.47L26.15 13.47L26.15 13.47Q26.02 13.23 25.96 12.76L25.96 12.76L25.96 12.76Q25.89 12.30 25.88 11.92L25.88 11.92L25.88 11.92Q25.86 11.54 25.86 10.87L25.86 10.87L25.86 10.87Q25.86 9.93 25.88 9.40L25.88 9.40L25.88 9.40Q25.91 8.87 26.02 8.34L26.02 8.34L26.02 8.34Q26.13 7.81 26.31 7.57L26.31 7.57L26.31 7.57Q26.50 7.33 26.86 7.13L26.86 7.13L26.86 7.13Q27.22 6.92 27.71 6.87L27.71 6.87L27.71 6.87Q28.21 6.81 28.96 6.81L28.96 6.81L28.96 6.81Q29.49 6.81 29.87 6.84L29.87 6.84L29.87 6.84Q30.26 6.87 30.58 6.97L30.58 6.97L30.58 6.97Q30.90 7.06 31.11 7.18L31.11 7.18L31.11 7.18Q31.32 7.31 31.48 7.55L31.48 7.55L31.48 7.55Q31.64 7.79 31.72 8.04L31.72 8.04L31.72 8.04Q31.81 8.30 31.86 8.72L31.86 8.72L31.86 8.72Q31.92 9.15 31.93 9.58L31.93 9.58L31.93 9.58Q31.94 10.01 31.94 10.66ZM27.21 10.04L27.21 10.04L30.60 10.04L30.60 10.04Q30.58 9.17 30.53 8.44L30.53 8.44L30.53 8.44Q30.50 8.03 30.17 7.89L30.17 7.89L30.17 7.89Q29.84 7.75 28.96 7.75L28.96 7.75L28.96 7.75Q27.98 7.75 27.72 7.85L27.72 7.85L27.72 7.85Q27.60 7.89 27.52 7.97L27.52 7.97L27.52 7.97Q27.43 8.06 27.38 8.22L27.38 8.22L27.38 8.22Q27.32 8.37 27.29 8.51L27.29 8.51L27.29 8.51Q27.26 8.65 27.24 8.89L27.24 8.89L27.24 8.89Q27.23 9.13 27.22 9.27L27.22 9.27L27.22 9.27Q27.21 9.40 27.21 9.67L27.21 9.67L27.21 9.67Q27.21 9.95 27.21 10.04ZM39.84 11.36L39.84 11.36L41.03 11.54L41.03 11.54Q41.00 12.20 40.91 12.66L40.91 12.66L40.91 12.66Q40.83 13.12 40.67 13.48L40.67 13.48L40.67 13.48Q40.51 13.84 40.28 14.06L40.28 14.06L40.28 14.06Q40.04 14.29 39.68 14.43L39.68 14.43L39.68 14.43Q39.31 14.57 38.86 14.63L38.86 14.63L38.86 14.63Q38.40 14.68 37.76 14.68L37.76 14.68L37.76 14.68Q37.15 14.68 36.66 14.65L36.66 14.65L36.66 14.65Q36.18 14.62 35.78 14.52L35.78 14.52L35.78 14.52Q35.38 14.41 35.08 14.31L35.08 14.31L35.08 14.31Q34.78 14.21 34.55 13.98L34.55 13.98L34.55 13.98Q34.32 13.75 34.17 13.56L34.17 13.56L34.17 13.56Q34.02 13.38 33.91 13.00L33.91 13.00L33.91 13.00Q33.80 12.62 33.75 12.33L33.75 12.33L33.75 12.33Q33.69 12.04 33.66 11.50L33.66 11.50L33.66 11.50Q33.63 10.95 33.63 10.54L33.63 10.54L33.63 10.54Q33.62 10.13 33.62 9.41L33.62 9.41L33.62 9.41Q33.62 8.64 33.63 8.18L33.63 8.18L33.63 8.18Q33.63 7.71 33.67 7.16L33.67 7.16L33.67 7.16Q33.70 6.62 33.75 6.32L33.75 6.32L33.75 6.32Q33.80 6.02 33.92 5.66L33.92 5.66L33.92 5.66Q34.03 5.30 34.17 5.12L34.17 5.12L34.17 5.12Q34.32 4.95 34.55 4.74L34.55 4.74L34.55 4.74Q34.78 4.54 35.06 4.46L35.06 4.46L35.06 4.46Q35.33 4.38 35.73 4.30L35.73 4.30L35.73 4.30Q36.13 4.22 36.58 4.20L36.58 4.20L36.58 4.20Q37.04 4.18 37.64 4.18L37.64 4.18L37.64 4.18Q38.26 4.18 38.70 4.22L38.70 4.22L38.70 4.22Q39.14 4.27 39.52 4.39L39.52 4.39L39.52 4.39Q39.90 4.52 40.15 4.73L40.15 4.73L40.15 4.73Q40.39 4.94 40.58 5.27L40.58 5.27L40.58 5.27Q40.77 5.61 40.87 6.06L40.87 6.06L40.87 6.06Q40.97 6.51 41.02 7.15L41.02 7.15L39.83 7.38L39.83 7.38Q39.79 7.03 39.76 6.80L39.76 6.80L39.76 6.80Q39.74 6.57 39.69 6.34L39.69 6.34L39.69 6.34Q39.63 6.12 39.60 5.98L39.60 5.98L39.60 5.98Q39.57 5.84 39.48 5.70L39.48 5.70L39.48 5.70Q39.38 5.57 39.32 5.50L39.32 5.50L39.32 5.50Q39.27 5.43 39.11 5.37L39.11 5.37L39.11 5.37Q38.95 5.31 38.85 5.29L38.85 5.29L38.85 5.29Q38.74 5.26 38.50 5.24L38.50 5.24L38.50 5.24Q38.25 5.22 38.08 5.22L38.08 5.22L38.08 5.22Q37.90 5.22 37.56 5.22L37.56 5.22L37.56 5.22Q37.08 5.22 36.77 5.23L36.77 5.23L36.77 5.23Q36.47 5.24 36.17 5.28L36.17 5.28L36.17 5.28Q35.86 5.32 35.69 5.39L35.69 5.39L35.69 5.39Q35.51 5.46 35.36 5.58L35.36 5.58L35.36 5.58Q35.21 5.70 35.15 5.88L35.15 5.88L35.15 5.88Q35.08 6.05 35.07 6.30L35.07 6.30L35.07 6.30Q35.01 8.10 35.01 9.98L35.01 9.98L35.01 9.98Q35.01 11.29 35.07 12.54L35.07 12.54L35.07 12.54Q35.10 12.93 35.29 13.15L35.29 13.15L35.29 13.15Q35.48 13.37 36.02 13.50L36.02 13.50L36.02 13.50Q36.57 13.63 37.56 13.63L37.56 13.63L37.56 13.63Q38.10 13.63 38.46 13.60L38.46 13.60L38.46 13.60Q38.82 13.57 39.07 13.46L39.07 13.46L39.07 13.46Q39.31 13.34 39.44 13.25L39.44 13.25L39.44 13.25Q39.57 13.16 39.65 12.89L39.65 12.89L39.65 12.89Q39.73 12.63 39.75 12.44L39.75 12.44L39.75 12.44Q39.78 12.26 39.81 11.83L39.81 11.83L39.81 11.83Q39.81 11.73 39.82 11.68L39.82 11.68L39.82 11.68Q39.82 11.62 39.83 11.53L39.83 11.53L39.83 11.53Q39.83 11.44 39.84 11.36ZM46.16 6.85L46.16 6.85L46.10 7.99L46.10 7.99Q45.84 7.96 45.61 7.96L45.61 7.96L45.61 7.96Q45.12 7.96 44.82 8.05L44.82 8.05L44.82 8.05Q44.52 8.15 44.37 8.38L44.37 8.38L44.37 8.38Q44.21 8.61 44.16 8.91L44.16 8.91L44.16 8.91Q44.11 9.21 44.11 9.71L44.11 9.71L44.11 9.71Q44.11 9.99 44.14 10.53L44.14 10.53L44.14 10.53Q44.16 11.07 44.16 11.30L44.16 11.30L44.16 14.52L42.81 14.52L42.81 7.02L44.04 7.02L44.17 7.86L44.17 7.86Q44.39 7.37 44.82 7.10L44.82 7.10L44.82 7.10Q45.25 6.83 45.85 6.83L45.85 6.83L45.85 6.83Q46.00 6.83 46.16 6.85ZM53.13 9.56L53.13 14.52L52.06 14.52L51.84 13.45L51.84 13.45Q51.64 14.15 51.10 14.39L51.10 14.39L51.10 14.39Q50.57 14.62 49.53 14.62L49.53 14.62L49.53 14.62Q48.85 14.62 48.41 14.49L48.41 14.49L48.41 14.49Q47.97 14.36 47.71 14.04L47.71 14.04L47.71 14.04Q47.46 13.73 47.36 13.27L47.36 13.27L47.36 13.27Q47.26 12.82 47.26 12.10L47.26 12.10L47.26 12.10Q47.26 11.78 47.37 11.53L47.37 11.53L47.37 11.53Q47.48 11.27 47.68 11.09L47.68 11.09L47.68 11.09Q47.87 10.92 48.20 10.79L48.20 10.79L48.20 10.79Q48.52 10.66 48.87 10.58L48.87 10.58L48.87 10.58Q49.22 10.51 49.71 10.46L49.71 10.46L49.71 10.46Q50.21 10.42 50.68 10.40L50.68 10.40L50.68 10.40Q51.15 10.39 51.78 10.39L51.78 10.39L51.78 8.36L51.78 8.36Q51.78 8.01 51.45 7.88L51.45 7.88L51.45 7.88Q51.13 7.75 50.29 7.75L50.29 7.75L50.29 7.75Q49.70 7.75 49.40 7.77L49.40 7.77L49.40 7.77Q49.11 7.80 48.96 7.93L48.96 7.93L48.96 7.93Q48.80 8.07 48.78 8.20L48.78 8.20L48.78 8.20Q48.75 8.33 48.75 8.68L48.75 8.68L48.75 8.68Q48.74 8.81 48.74 8.89L48.74 8.89L47.69 8.85L47.69 8.85Q47.68 8.74 47.68 8.52L47.68 8.52L47.68 8.52Q47.68 8.07 47.81 7.75L47.81 7.75L47.81 7.75Q47.95 7.43 48.16 7.25L48.16 7.25L48.16 7.25Q48.37 7.07 48.74 6.97L48.74 6.97L48.74 6.97Q49.11 6.86 49.47 6.84L49.47 6.84L49.47 6.84Q49.83 6.81 50.37 6.81L50.37 6.81L50.37 6.81Q51.19 6.81 51.71 6.94L51.71 6.94L51.71 6.94Q52.22 7.06 52.55 7.39L52.55 7.39L52.55 7.39Q52.88 7.72 53.00 8.23L53.00 8.23L53.00 8.23Q53.13 8.74 53.13 9.56L53.13 9.56ZM51.78 12.37L51.78 12.37L51.78 11.20L51.78 11.20Q50.44 11.20 49.71 11.31L49.71 11.31L49.71 11.31Q48.99 11.41 48.74 11.59L48.74 11.59L48.74 11.59Q48.50 11.77 48.50 12.10L48.50 12.10L48.50 12.10Q48.50 12.11 48.50 12.14L48.50 12.14L48.50 12.14Q48.50 13.18 48.67 13.43L48.67 13.43L48.67 13.43Q48.84 13.69 49.72 13.69L49.72 13.69L49.72 13.69Q50.46 13.69 50.93 13.51L50.93 13.51L50.93 13.51Q51.39 13.33 51.57 13.05L51.57 13.05L51.57 13.05Q51.75 12.78 51.78 12.37ZM59.27 7.02L60.66 7.02L58.18 14.52L56.72 14.52L54.36 7.02L55.62 7.02L57.46 13.35L59.27 7.02ZM67.85 10.66L67.85 10.66L67.85 10.66Q67.03 10.75 66.83 10.76L66.83 10.76L63.10 10.76L63.10 10.76Q63.11 11.75 63.16 12.93L63.16 12.93L63.16 12.93Q63.19 13.39 63.55 13.54L63.55 13.54L63.55 13.54Q63.91 13.69 64.95 13.69L64.95 13.69L64.95 13.69Q65.34 13.69 65.62 13.65L65.62 13.65L65.62 13.65Q65.90 13.62 66.07 13.55L66.07 13.55L66.07 13.55Q66.25 13.47 66.35 13.40L66.35 13.40L66.35 13.40Q66.45 13.32 66.49 13.17L66.49 13.17L66.49 13.17Q66.54 13.02 66.55 12.91L66.55 12.91L66.55 12.91Q66.57 12.80 66.58 12.59L66.58 12.59L66.58 12.59Q66.60 12.37 66.62 12.24L66.62 12.24L67.66 12.43L67.66 12.43Q67.65 12.91 67.59 13.24L67.59 13.24L67.59 13.24Q67.54 13.57 67.41 13.82L67.41 13.82L67.41 13.82Q67.28 14.08 67.10 14.22L67.10 14.22L67.10 14.22Q66.92 14.37 66.62 14.46L66.62 14.46L66.62 14.46Q66.32 14.56 65.96 14.59L65.96 14.59L65.96 14.59Q65.60 14.62 65.06 14.62L65.06 14.62L65.06 14.62Q64.38 14.62 63.88 14.54L63.88 14.54L63.88 14.54Q63.37 14.46 63.01 14.35L63.01 14.35L63.01 14.35Q62.65 14.23 62.42 13.97L62.42 13.97L62.42 13.97Q62.19 13.71 62.05 13.47L62.05 13.47L62.05 13.47Q61.92 13.23 61.86 12.76L61.86 12.76L61.86 12.76Q61.80 12.30 61.78 11.92L61.78 11.92L61.78 11.92Q61.76 11.54 61.76 10.87L61.76 10.87L61.76 10.87Q61.76 9.93 61.79 9.40L61.79 9.40L61.79 9.40Q61.81 8.87 61.92 8.34L61.92 8.34L61.92 8.34Q62.03 7.81 62.21 7.57L62.21 7.57L62.21 7.57Q62.40 7.33 62.76 7.13L62.76 7.13L62.76 7.13Q63.12 6.92 63.62 6.87L63.62 6.87L63.62 6.87Q64.11 6.81 64.87 6.81L64.87 6.81L64.87 6.81Q65.39 6.81 65.78 6.84L65.78 6.84L65.78 6.84Q66.16 6.87 66.48 6.97L66.48 6.97L66.48 6.97Q66.80 7.06 67.01 7.18L67.01 7.18L67.01 7.18Q67.22 7.31 67.38 7.55L67.38 7.55L67.38 7.55Q67.54 7.79 67.62 8.04L67.62 8.04L67.62 8.04Q67.71 8.30 67.76 8.72L67.76 8.72L67.76 8.72Q67.82 9.15 67.83 9.58L67.83 9.58L67.83 9.58Q67.85 10.01 67.85 10.66ZM63.11 10.04L63.11 10.04L66.50 10.04L66.50 10.04Q66.49 9.17 66.43 8.44L66.43 8.44L66.43 8.44Q66.40 8.03 66.07 7.89L66.07 7.89L66.07 7.89Q65.74 7.75 64.86 7.75L64.86 7.75L64.86 7.75Q63.88 7.75 63.62 7.85L63.62 7.85L63.62 7.85Q63.51 7.89 63.42 7.97L63.42 7.97L63.42 7.97Q63.33 8.06 63.28 8.22L63.28 8.22L63.28 8.22Q63.23 8.37 63.19 8.51L63.19 8.51L63.19 8.51Q63.16 8.65 63.15 8.89L63.15 8.89L63.15 8.89Q63.13 9.13 63.12 9.27L63.12 9.27L63.12 9.27Q63.12 9.40 63.11 9.67L63.11 9.67L63.11 9.67Q63.11 9.95 63.11 10.04Z"></path></g><defs data-v-fde0c5aa=""><!----></defs><g data-v-fde0c5aa="" id="f064dcc9-ff8d-4441-9ec5-9d000e17b268" stroke="none" fill="#041814" transform="matrix(0.8271844740959537,0,0,0.8271844740959537,108.64077629520231,78.96116444280347)"><path d="M50 0C22.386 0 0 22.386 0 50c0 27.615 22.386 50 50 50s50-22.385 50-50c0-27.614-22.386-50-50-50zm.038 77.443c-15.165 0-27.459-12.293-27.459-27.459 0-15.165 12.294-27.459 27.459-27.459 12.856 0 23.646 8.837 26.634 20.768H64.527c-2.536-5.469-8.075-9.273-14.489-9.273-8.803 0-15.965 7.162-15.965 15.965S41.235 65.95 50.038 65.95c6.437 0 11.991-3.83 14.516-9.33h12.132c-2.969 11.958-13.771 20.823-26.648 20.823z"></path></g><!----></svg>